<?xml version="1.0" encoding="UTF-8"?>
<svg id="Ebene_1" data-name="Ebene 1" xmlns="http://www.w3.org/2000/svg" width="255.09" height="88" viewBox="0 0 255.09 88">
  <defs>
    <style>
      .cls-1 {
        fill: none;
      }

      .cls-2 {
        fill: #e2001d;
      }

      .cls-3 {
        fill: #181716;
      }
    </style>
  </defs>
  <g>
    <polygon class="cls-3" points="222.08 42.95 222.08 3.31 181.54 51.98 255.09 51.98 255.09 3.31 222.08 42.95"/>
    <g>
      <path class="cls-2" d="M147.63,25.99c0-14.35,11.64-25.99,25.99-25.99s25.99,11.64,25.99,25.99v.6h-26.49v25.29c-14.15-.2-25.49-11.74-25.49-25.89"/>
      <path class="cls-3" d="M238.24,87.4v-13.95l10.94,13.85h5.92v-22.68h-5.92v13.85l-10.94-13.85h-5.92v22.68h5.92v.1ZM218.07,87.4h5.92v-22.78h-5.92v22.78ZM197.4,64.62h-5.92v22.68h5.92v-9.83l7.63,9.83h7.63l-9.83-11.94,9.03-10.74h-7.32l-7.22,9.33v-9.33h.1ZM160.57,80.78c.6,1.4,1.51,2.71,2.61,3.81,1.1,1.1,2.41,1.91,3.91,2.51s3.21.9,5.12.9c1.81,0,3.51-.3,5.02-.9s2.91-1.51,4.01-2.51,2.01-2.31,2.61-3.81c.6-1.4.9-3.01.9-4.72s-.3-3.21-.9-4.72c-.6-1.4-1.51-2.71-2.61-3.81s-2.41-1.91-4.01-2.51c-1.51-.6-3.21-.9-5.02-.9s-3.51.3-5.12.9-2.81,1.51-3.91,2.51c-1.1,1.1-2.01,2.31-2.61,3.81-.6,1.4-.9,3.01-.9,4.72s.3,3.21.9,4.72M166.29,73.55c.3-.8.8-1.4,1.4-2.01.6-.6,1.3-1,2.01-1.3.8-.3,1.61-.5,2.41-.5.9,0,1.71.2,2.41.5.8.3,1.4.7,2.01,1.3.6.6,1.1,1.2,1.4,2.01.3.8.5,1.61.5,2.51s-.2,1.71-.5,2.51-.8,1.4-1.4,2.01c-.6.6-1.3,1-2.01,1.3-.8.3-1.61.5-2.41.5-.9,0-1.71-.2-2.41-.5-.8-.3-1.4-.7-2.01-1.3-.6-.6-1-1.2-1.4-2.01-.3-.8-.5-1.61-.5-2.51s.2-1.81.5-2.51M142.41,69.64v-5.02h-15.55v5.02h4.82v17.66h5.92v-17.66h4.82ZM116.32,78.07c1.61-.4,2.81-1.1,3.71-2.21.8-1.1,1.2-2.51,1.2-4.21,0-1-.2-1.91-.5-2.71-.3-.8-.8-1.61-1.4-2.21-.6-.6-1.4-1.1-2.31-1.51-.9-.4-2.01-.6-3.31-.6h-9.13v22.68h5.92v-8.73l5.62,8.73h7.32l-7.12-9.23ZM110.5,69.24h1.1c1.2,0,2.11.2,2.71.7.6.5.9,1.2.9,2.11s-.3,1.61-.9,2.11c-.6.5-1.51.7-2.71.7h-1.1v-5.62ZM96.76,64.62h-12.94v22.68h12.94v-5.02h-7.02v-3.91h6.62v-5.02h-6.62v-3.81h7.02v-4.92ZM44.28,64.62l6.82,22.68h6.02l4.42-13.14,4.42,13.14h6.02l6.82-22.68h-6.22l-3.91,14.65-4.82-14.65h-4.72l-4.82,14.75-3.91-14.65h-6.12v-.1ZM39.36,64.62h-12.84v22.68h12.94v-5.02h-7.02v-3.91h6.62v-5.02h-6.62v-3.81h7.02v-4.92h-.1ZM.73,87.4h8.73c1.61,0,3.01-.3,4.42-.9s2.51-1.4,3.51-2.51,1.81-2.21,2.41-3.61c.6-1.4.9-2.81.9-4.31s-.3-2.91-.9-4.31c-.6-1.4-1.4-2.61-2.41-3.61s-2.21-1.91-3.51-2.51c-1.4-.6-2.81-.9-4.31-.9H.83v22.68h-.1ZM6.65,69.64h1.3c1,0,1.91.2,2.71.5s1.51.8,2.01,1.3c.5.6,1,1.2,1.3,2.01s.5,1.61.5,2.51-.1,1.81-.4,2.51c-.3.8-.7,1.4-1.3,2.01s-1.2,1-2.01,1.3-1.71.5-2.71.5h-1.3v-12.64h-.1Z"/>
    </g>
  </g>
  <rect class="cls-1" width="255" height="88"/>
</svg>