<?xml version="1.0" encoding="UTF-8"?>
<svg xmlns="http://www.w3.org/2000/svg" width="136" height="71" fill="none">
  <g clip-path="url(#a)" fill="#0f4c81">
    <path d="M5.997 1.823c-.655-.751-2.528-2.064-4.49-.473C.2 2.473.107 3.597.012 3.975c0 .373-.19 1.497 1.028 2.904C2.257 8.28 13.856 21.386 13.856 21.386S24.8 33.652 27.228 36.177c2.429 2.525 7.764 7.298 15.996 7.582 5.702.189 5.702.094 6.358.094h13.844c.373 0 3.646.095 7.109-1.218 3.462-1.313 6.92-3.933 9.26-5.99 2.339-2.153 8.42-8.517 8.792-8.984 2.9-2.993 4.301-4.117 7.014-3.744 2.806.467 6.641 1.124 13.372 2.525.189.095 15.434 3.371 15.617 3.466.189 0 2.712.656 4.113-1.78 1.217-2.342-.561-4.773-2.056-5.056-4.302-.935-8.698-1.964-13-2.904-.372-.095-15.712-3.466-19.27-3.466-1.122 0-3.74-.094-6.735 2.342-3.18 2.526-5.986 5.802-6.453 6.18-.467.468-4.024 4.306-5.052 5.24C72.77 33.646 69.03 36.74 63.7 36.74H46.675c-.75 0-5.519 0-8.137-1.03-2.9-1.123-4.768-2.714-7.013-5.24C29.285 28.029 5.997 1.824 5.997 1.824zM8.52 60.608c-.094-2.342-1.217-4.305-3.273-4.305-1.868 0-3.274 1.685-3.463 4.305H8.52zm-8.414.65c0-3.837 2.245-6.552 5.14-6.552 3.18 0 5.053 2.715 5.053 6.458v.751h-8.42c.189 2.81 1.873 4.306 3.834 4.306 1.401 0 2.34-.562 3.274-1.402l1.028 1.123c-1.122 1.124-2.434 1.875-4.302 1.875C2.63 67.817.1 65.292.1 61.36v-.095l.006-.005zM14.228 54.99h1.778v2.809c.75-1.78 2.246-2.993 4.302-2.904v1.875h-.094c-2.34 0-4.207 1.685-4.207 4.867v5.991h-1.779V54.99zM31.902 60.608c0-2.714-1.873-4.4-3.74-4.4-1.962 0-3.552 1.591-3.552 4.4v.095c0 2.714 1.59 4.4 3.552 4.4 1.961 0 3.74-1.686 3.74-4.495zm-7.859 7.771c1.217.751 2.618 1.218 4.024 1.218 2.34 0 3.835-1.218 3.835-3.743v-1.875c-.845 1.402-2.151 2.62-4.113 2.62-2.523 0-4.958-2.153-4.958-5.896v-.095c0-3.743 2.435-5.896 4.958-5.896 1.962 0 3.274 1.124 4.113 2.436v-2.247h1.778v10.858c0 1.686-.466 2.993-1.4 3.838-.934.935-2.34 1.402-4.113 1.402-1.684 0-3.274-.467-4.769-1.313l.656-1.312-.01.005zM47.053 61.164c0-2.809-1.684-4.867-3.835-4.867s-3.74 2.058-3.74 4.867v.095c0 2.809 1.683 4.867 3.834 4.867s3.835-2.153 3.835-4.867l-.094-.095zm-9.354 0c0-3.649 2.34-6.458 5.613-6.458 3.274 0 5.52 2.81 5.52 6.458v.095c0 3.649-2.34 6.458-5.614 6.458s-5.52-2.81-5.52-6.458v-.095zM52.95 54.99h1.683v1.963c.656-1.218 1.684-2.247 3.552-2.247 1.684 0 2.9.935 3.462 2.247.75-1.218 1.962-2.247 3.835-2.247 2.434 0 4.024 1.685 4.024 4.59v8.143h-1.778v-7.771c0-2.247-1.029-3.466-2.713-3.466-1.59 0-2.99 1.313-2.99 3.555v7.676h-1.778v-7.77c0-2.248-1.029-3.466-2.712-3.466-1.684 0-2.99 1.496-2.99 3.554v7.582H52.86V54.98h.095l-.006.01zM82.784 61.164c0-2.809-1.684-4.867-3.835-4.867-2.15 0-3.74 2.058-3.74 4.867v.095c0 2.809 1.684 4.867 3.835 4.867 2.15 0 3.835-2.153 3.835-4.867v-.095h-.095zm-9.354 0c0-3.649 2.34-6.458 5.614-6.458 3.273 0 5.519 2.81 5.519 6.458v.095c0 3.649-2.34 6.458-5.614 6.458-3.273 0-5.519-2.81-5.519-6.458v-.095zM89.142 64.629V56.58h-1.495v-1.496h1.495v-3.65h1.779v3.65h3.273v1.496h-3.273v7.77c0 1.314.75 1.78 1.778 1.78.467 0 .934-.094 1.495-.372v1.496c-.561.279-1.217.468-1.873.468-1.778 0-3.179-.846-3.179-3.087M98.307 67.533h1.778V54.99h-1.778v12.543zm-.095-15.163h1.962v-2.058h-1.962v2.058zM113.646 61.164c0-2.809-1.684-4.867-3.835-4.867-2.15 0-3.74 2.058-3.74 4.867v.095c0 2.809 1.684 4.867 3.835 4.867s3.835-2.153 3.835-4.867v-.095h-.095zm-9.354 0c0-3.649 2.34-6.458 5.614-6.458 3.273 0 5.519 2.81 5.519 6.458v.095c0 3.649-2.34 6.458-5.614 6.458-3.273 0-5.519-2.81-5.519-6.458v-.095zM119.538 54.99h1.778v2.058c.656-1.218 1.873-2.247 3.74-2.247 2.524 0 4.113 1.78 4.113 4.589v8.238h-1.873v-7.77c0-2.248-1.028-3.466-2.901-3.466-1.873 0-3.179 1.401-3.179 3.554v7.582h-1.778l.094-12.544.006.006zM133.382 54.706c.373 0 .562-.19.562-.468s-.189-.467-.562-.467h-.75v.935h.75zm-1.311-1.402h1.311c.373 0 .656.094.934.278.189.19.284.373.284.657 0 .467-.284.75-.656.845l.75 1.124h-.656l-.75-1.03h-.656v1.03h-.561v-2.904zm3.646 1.496a2.516 2.516 0 0 0-2.524-2.525 2.516 2.516 0 0 0-2.523 2.525 2.516 2.516 0 0 0 2.523 2.526 2.516 2.516 0 0 0 2.524-2.526zm-5.33 0c0-1.59 1.311-2.809 2.806-2.809 1.59 0 2.807 1.218 2.807 2.81 0 1.59-1.312 2.808-2.807 2.808-1.495 0-2.806-1.218-2.806-2.809z"></path>
  </g>
  <defs>
    <clipPath id="a">
      <path fill="#0f4c81" transform="translate(0 .6)" d="M0 0h136v70.4H0z"></path>
    </clipPath>
  </defs>
</svg>
