<svg width="126" height="44" viewBox="0 0 126 44" fill="none" xmlns="http://www.w3.org/2000/svg">
<path d="M123.08 14.2721V14.2636C123.08 13.467 123.726 12.7959 124.539 12.7959C125.353 12.7959 125.999 13.4581 125.999 14.2552V14.2636C125.999 15.0603 125.353 15.7314 124.539 15.7314C123.726 15.7314 123.08 15.0683 123.08 14.2721ZM125.832 14.2636V14.2552C125.832 13.5424 125.278 12.9551 124.54 12.9551C123.802 12.9551 123.248 13.5508 123.248 14.2636V14.2721C123.248 14.9853 123.802 15.5721 124.54 15.5721C125.278 15.5721 125.832 14.9769 125.832 14.264M123.995 13.4999H124.649C124.951 13.4999 125.194 13.6591 125.194 13.9531C125.194 14.1962 125.035 14.339 124.834 14.3976L125.245 14.968H124.951L124.582 14.4313H124.23V14.968H123.995V13.5003L123.995 13.4999ZM124.624 14.2384C124.833 14.2384 124.951 14.1292 124.951 13.97C124.951 13.7935 124.825 13.7101 124.624 13.7101H124.229V14.2384H124.624Z" fill="#003349"/>
<path d="M94.962 12.7875C91.8637 12.6173 88.6204 14.5101 86.7682 17.3444C83.3795 22.5303 85.2414 29.7178 91.8161 30.0792C94.8815 30.2481 97.7898 28.609 99.642 25.7746C103.054 20.552 101.27 13.1342 94.9625 12.7875M89.7894 20.2163C93.0231 12.4943 100.074 15.0982 96.9301 22.7305C93.8132 30.2974 86.5377 27.9817 89.7894 20.2163Z" fill="#003349"/>
<path d="M78.2583 12.7726C76.0289 12.7726 74.9804 13.4926 74.9796 13.493C74.9796 13.493 78.3649 7.27998 79.1015 5.86786C80.7523 2.70281 76.4883 1.29701 75.3121 4.16717C69.6464 17.9939 65.1265 25.646 64.5766 26.6276C62.7088 29.9616 67.1591 31.1622 68.0062 28.8721C68.1874 28.3843 68.3547 27.8244 68.3901 27.7536C68.9455 28.9256 70.6001 30.0921 73.725 30.0921C77.7344 30.0921 83.1869 27.5337 83.9054 20.5304C84.4149 15.5669 80.7763 12.7726 78.2574 12.7726M78.831 23.516C76.6408 27.5561 73.5357 27.6184 72.3111 27.1554C70.6308 26.5201 70.0387 22.9755 72.274 19.251C74.5257 15.4995 76.9687 15.1663 78.2026 15.6596C79.662 16.2435 80.7173 20.0367 78.8314 23.516" fill="#003349"/>
<path d="M47.9479 18.8318H45.2136C44.4504 18.8318 43.8301 19.4494 43.8301 20.2127C43.8301 20.9761 44.4504 21.5962 45.2136 21.5962H47.9479C48.7111 21.5962 49.3318 20.9786 49.3318 20.2127C49.3318 19.4469 48.7111 18.8318 47.9479 18.8318Z" fill="#003349"/>
<path d="M64.0875 18.8318H61.3533C60.5901 18.8318 59.9697 19.4494 59.9697 20.2127C59.9697 20.9761 60.5901 21.5962 61.3533 21.5962H64.0875C64.8507 21.5962 65.4715 20.9786 65.4715 20.2127C65.4715 19.4469 64.8507 18.8318 64.0875 18.8318Z" fill="#003349"/>
<path d="M21.0278 12.779C27.594 12.6543 30.6064 10.3192 31.9874 7.06526C33.3819 3.7793 31.448 0.12851 28.1967 0.0800633C24.3617 0.0227696 21.4698 5.17499 18.3567 10.1932C17.2176 10.3866 15.5163 10.3571 13.7775 9.97881C12.4445 9.68813 11.8958 11.4941 13.1538 12.0098C14.4505 12.5414 16.7338 12.7643 16.7368 12.7306C14.4686 16.4345 11.4702 21.628 10.1043 23.4795C3.48832 20.8444 0.0267034 23.8342 0.000153361 26.5919C-0.0188109 28.5651 1.72085 30.4196 5.32195 30.011C7.36799 29.7788 8.87165 29.2977 10.5671 27.8806C13.4404 29.6782 18.6947 31.1257 23.2761 29.1061C24.7271 28.4657 24.0924 26.6151 22.5209 27.0515C18.2539 28.2365 15.5193 26.9921 13.2157 25.6044C13.5074 25.1625 21.0265 12.782 21.0278 12.7799M26.3129 4.26587C28.8276 0.947894 30.7779 4.30168 27.7841 7.34457C25.3858 9.78166 23.215 9.92026 22.6423 9.96913C23.8821 7.82061 25.3091 5.58995 26.3129 4.26587ZM3.68302 25.5067C5.5373 24.6131 8.02415 26.1811 8.02415 26.1811C3.60758 29.1149 1.72295 26.4508 3.68302 25.5067Z" fill="#003349"/>
<path d="M27.0027 18.6002C29.3821 14.6145 33.2778 12.3666 36.2434 12.8426C38.9717 13.2799 39.713 15.3846 39.713 15.3846C39.713 15.3846 39.7943 15.3534 40.0497 14.6777C41.3747 11.1701 46.0791 13.0107 43.9736 16.3278C42.0363 19.38 38.0492 26.754 38.4158 28.7694C38.6518 30.0657 37.1081 30.1133 36.5969 30.0493C34.4578 29.7796 34.2108 27.8944 34.2108 27.8944C27.9459 33.6183 22.0176 26.9516 27.0027 18.601M36.13 15.5375C34.2972 15.2022 31.6738 17.5672 30.3438 20.1994C28.4638 23.918 28.6298 26.8025 30.5511 27.3206C32.0501 27.7251 34.4481 25.5488 36.0786 22.7283C38.6341 18.3078 37.9628 15.8729 36.13 15.5375Z" fill="#003349"/>
<path d="M120.805 15.7764C122.203 13.0318 118.363 11.3821 117.1 14.3622C116.005 16.9442 114.891 18.9465 113.679 21.4881C113.196 22.3875 112.685 23.3055 112.121 24.2799C110.436 27.1901 107.965 27.4429 107.029 27.2192C106.359 27.0587 105.544 26.0986 106.161 24.2664C106.587 23.0051 109.709 17.4464 110.498 16.2318C112.41 13.2842 107.828 10.9937 106.653 14.7304C105.923 17.0508 103.571 21.0057 102.436 23.3708C99.8059 28.8474 105.343 31.8966 110.214 28.9043C110.079 29.2008 109.342 30.998 109.231 31.2706C106.611 31.4012 104.027 32.0167 101.83 33.5733C99.3701 35.325 97.3544 38.7617 99.089 41.6854C101.101 44.9124 105.469 44.3605 107.81 41.8442C109.552 39.9826 110.119 37.9028 110.992 35.7294C111.273 35.0368 111.557 34.3438 111.844 33.6521C113.897 33.7178 115.263 33.9128 116.39 34.1256C117.768 34.3859 118.219 32.3967 116.873 32.0158C115.513 31.6308 112.935 31.3633 112.817 31.3532C113.775 29.1334 120.539 16.3228 120.804 15.7777M105.476 39.6081C104.576 40.6141 102.588 41.3787 101.693 40.082C100.82 38.5987 102.368 36.7114 103.501 35.7871C104.88 34.7478 106.501 34.1694 108.205 33.8821C107.424 35.7711 106.794 38.177 105.475 39.6077" fill="#003349"/>
<path d="M82.289 33.0909C82.7428 32.2176 81.9569 31.2521 80.9265 31.7289C80.0562 32.1313 77.59 33.7898 73.6206 33.7898H73.6185C65.227 33.7898 58.6826 27.2647 50.957 26.6829C50.957 26.6829 71.2324 6.26904 71.6121 5.83007C71.9222 5.48631 72.1132 5.03091 72.1132 4.53001C72.1132 3.9002 71.8127 3.34201 71.347 2.9894C71.3449 2.98729 71.3398 2.98435 71.3373 2.98224C71.0132 2.74127 70.6146 2.59803 70.1801 2.59803C69.8581 2.59803 69.5551 2.67681 69.2904 2.81541C69.1783 2.86765 69.0662 2.93 68.9562 3.00372C64.5974 5.9257 58.8403 2.98013 54.5337 2.59593C48.4183 2.04953 46.6479 8.153 49.3345 10.8433C50.2697 11.7781 51.5795 10.8816 50.9448 9.77955C50.088 8.29623 52.0186 4.90663 55.7023 5.91812C57.1364 6.31159 58.5415 6.73624 60.1016 7.1512C62.2896 7.73298 64.3698 7.35383 64.3698 7.35383C64.3698 7.35383 57.3029 15.7781 45.6597 26.5489C45.607 26.5965 45.5522 26.6466 45.4995 26.6968C45.3204 26.8615 45.1822 27.033 45.0747 27.2074C45.0726 27.212 45.0675 27.2192 45.065 27.2242C44.9217 27.4938 44.8408 27.8009 44.8408 28.1283C44.8408 28.4885 44.9386 28.8246 45.1076 29.1132C45.1126 29.1179 45.1173 29.125 45.1198 29.1322C46.0145 30.4685 47.3677 30.0156 47.6985 29.85C48.2856 29.5568 48.9607 29.4351 49.7315 29.4136C55.8801 29.2417 61.7827 35.6788 68.9503 37.5013C76.3675 39.3869 81.5439 34.5228 82.2877 33.0913" fill="#003349"/>
</svg>