<?xml version="1.0" encoding="utf-8"?>
<!-- Generator: Adobe Illustrator 22.0.1, SVG Export Plug-In . SVG Version: 6.00 Build 0)  -->
<svg version="1.1" id="Layer_1" xmlns="http://www.w3.org/2000/svg" xmlns:xlink="http://www.w3.org/1999/xlink" x="0px" y="0px"
	 viewBox="0 0 1200 334" style="enable-background:new 0 0 1200 334;" xml:space="preserve">
<style type="text/css">
	.st0{clip-path:url(#SVGID_2_);fill:#002169;}
</style>
<g>
	<defs>
		<rect id="SVGID_1_" x="19.4" y="18.7" width="1161.1" height="296.6"/>
	</defs>
	<clipPath id="SVGID_2_">
		<use xlink:href="#SVGID_1_"  style="overflow:visible;"/>
	</clipPath>
	<path class="st0" d="M60.4,225.3c1.5-0.7,10.1-5.5,10.1-5.5c2.6-1.5,5-3.2,7.4-5c-1.5-0.5-3-0.9-4.5-1.4
		c-10.3-3.9-46.3-5.8-49.7,8.5c-0.4,1.6,0.8,3.3,1.9,4.4C31.8,233.1,52.9,228.5,60.4,225.3 M184.7,110.2c17-5.6,30.5-12.7,36.3-16.1
		c3.7-2.4,7.3-4.8,11.2-6.9c15.7-8.6,30.6-24.2,39.8-39.3c1.1-1.7,2.8-6.7,1.7-8.6c-5.2-8.8-40.9,15.2-46.6,19.5
		c-4.8,3.7-10,7.9-14.3,12.1c-3.5,3.5-6.7,7.7-9.6,11.7C200.1,86.8,186.8,107,184.7,110.2 M101.6,224.2c-3.1-1.4-6.3-2.8-9.7-4.2
		c-4.8,2.4-9.6,4.6-13.7,6.1c-16.2,6-39.5,14-54.4,4.3c-0.7-1.1-2-1.6-2.1-3c-1.1-1.7-2.1-3.8-1.3-5.8c-0.3-1.6,0.9-3.1,1.6-4.4
		c7.9-13.3,34.7-12.7,47.9-10.4c1,0.2,2.1,0.4,3.3,0.7c3.5,0.5,7,1.4,10.5,2.6c3.5-3.1,7.2-6.7,11.7-11.1
		c17.9-18.8,46.7-55.6,52.3-62.7c0.8-1,1.9-2.3,3.1-3.7c2.5-3.2,5.6-7.4,9.3-12.2c-7.5,1.5-13.1,2.2-15.2,2.4c-1.2,0.1-2.8,0-4.5,0
		c-8.7,0.4-17.6,0.9-26.1-0.8c-20.1-3.9-45.9-11.5-54.3-32.5c-1.2-3.1-1.4-6.5-1.8-9.8c0.4-1.3,0-2.4,0.3-3.8
		c0.8-4.3,2.7-8.6,5.7-11.7c17.2-17.5,48-23,71.3-17.9c1.9,0.4,13.4,3.2,13.8,4.7l-1.1,1.1c-3.6,0-7.4-0.7-11-1
		c-11.6-0.8-23.4-1.3-34.9,0.8c-14.5,2.7-42.2,9.9-39.9,29.8c0.4,3,2,8.7,3.5,11.3c5.3,9.2,18.6,15.7,28.2,19.3
		c16.7,6.2,36.4,7.9,54,5.6l1.9-0.2l2.4-0.2c3.8-0.4,7.6-1,11.3-1.7c3.2-4.1,21.2-25,33.7-37.7c10.2-10.4,65.7-59.2,80-43.3
		c3.3,3.7,3.3,8.6,1.6,13.1c-6.8,18.4-31.7,37.5-54.6,50.5l-0.6,0.4c-11,7.2-27.4,12.9-42.5,16.9c-5.3,8.6-8.2,13.4-10.4,17
		l-0.5,0.6c-1.5,2.8-2.9,5.3-3.7,7c-4.7,8.9-10.2,17.7-15.9,25.9c-10.6,15.1-22.5,29.8-37.5,40.7l-2,1.4c-3.4,2.6-7.8,5.5-12.6,8.2
		c3.3,1.5,6.3,2.9,8.9,4.1c12.6,5.3,38.5,13,44.2,14.4c7.2,1.7,14.6,2.3,22,2.4c5.9,0.1,11.7-1.3,17.5-1.3l1.1,0.8
		c-1.1,3.1-23.9,5.8-24.8,6.5c-5.1,0.1-19.9-0.4-24.3-1.8c-10-3.2-19.6-7.4-29.2-11.5c-3.6-1.5-7.1-3.3-10.6-5L101.6,224.2z
		 M215.2,153.6c-6.4-3.6-24.8,14.1-33.8,23.3l-1.3,1.2c-2.4,2.7-6.4,6.3-6.4,6.3s7.3-1.6,11-3.3c11.7-5.1,30.7-20.6,30.9-26.8
		L215.2,153.6z M270.7,161.6c-7-8.1-48.1,32.7-53.9,39.8c-2,2.4-15.6,17-11.4,19.5c4.8,2.9,26.2-15.5,31-18.4
		c5.1-3.1,26.9-23.8,30.6-29c1.2-1.7,2.6-4.1,3.4-6C271.2,165.9,272.1,163.1,270.7,161.6 M354.4,162.9c-0.6-1.5-3.1-2.1-4.5-1.9
		c-13.2,2-47.5,38-57.4,48.5c-1.4,1.5-9.5,10.3-6.1,12.1C295.2,226.4,359.1,174.3,354.4,162.9 M289.1,247.3
		c-6.5,1-39.4,28.4-45,34.1c-2.7,2.8-19.4,22.3-15.3,25.5c7,5.5,38.7-33.5,44.3-39.2C278.3,261.2,285.1,254.3,289.1,247.3
		 M207.4,246.9c-1.6-1.8-14.5,8.1-16.6,9.9c-15.3,12.6-31.7,23.3-42.2,40.7c-0.9,1.5-2.8,5.9-2.5,7.6c0.1,0.7,1,1.2,1.6,1.3
		c4.9,0.4,20.6-13.6,24.1-17.6C176.5,283.5,207.4,250.4,207.4,246.9 M441.3,155.1c-6.3-2.1-25.8,15.2-33.5,24
		c-2.4,2.7-5.4,5.8-5.4,5.8s2.9-0.2,8.6-2.5l3.6-1.5c11.3-5.8,28.2-19.6,27.7-24.7L441.3,155.1z M471.5,226.7
		c-2-1.9-3.3-4.9-3.8-7.9l-0.1-1.1c-0.1-0.8-0.1-1.6-0.1-2.4c0.1-2.6,1-3.7,1-3.7s-4.1,2.3-6.4,3.8l-1.8,1.1
		c-10.5,7.1-27,17.2-34.7,10.1c-2-1.9-3.3-4.9-3.8-7.9l-0.1-1.1c-0.1-0.8-0.1-1.6-0.1-2.4c0.1-2.6,1-3.7,1-3.7s-4.1,2.3-6.4,3.8
		c-3.5,2.2-8,5.2-12.5,7.8c-4,2.3-7.8,4.3-10.2,5c-15.1,4.4-28.6-9-22-23.8c0.6-1.3,0.5-3.1,1.3-4.2l-0.6-1.1
		c-0.7,0-8.4,4.1-14.7,7.6c-3.8,2.1-7.2,4.1-8.1,4.6c-8.1,5.1-17.2,8.7-25.3,13.9c-6,3.8-9.9,10.8-14.3,16.1
		c-15.2,18.4-43.7,56.4-65.3,67.9c-4.7,2.5-12.6,6-17.7,3c-6.2-3.6-4.1-12-1.3-17c7-12.5,17.2-21.1,28-30.3
		c7.6-6.4,15.8-11.7,23.8-17.5c7-5,19.9-11.3,25.3-16.2c4.5-4.2,13.6-14.6,15.9-20.2l-1.1-0.4c-9.7,5-20.5,17.1-31.8,17.9
		c-4.1,0.3-7.9-3.7-9.2-7.2c-2-5.2,1.3-11.2,2.7-16.1l-1.2-0.8c-0.1,0-2,1-4.7,2.5c-9.5,5.1-29.3,16.1-31.3,17.3
		c-2.7,1.7-5.7,4.7-8.8,8.4c-7.8,9.2-16.5,22.7-22,29.5c-12.1,15.1-30.3,35.7-47.2,45.3c-4.4,2.5-12.6,6.2-17.7,4.2
		c-2-0.8-4.4-3-4.8-5.1c-4.2-20.1,37.5-47.7,51.8-57.6c2.1-1.5,4.4-2.8,6.5-4.1c9.1-5.6,17.1-11.2,23.9-18.1
		c4.4-4.4,8.3-9.4,11.8-15.6l1.5-2.7c-0.6,0.3-1.7,1-3.4,2.1c-7.7,5.1-18.4,14.9-27.2,16.9c-6.7,1.5-11.3-6.4-10.8-12.2
		c0.1-1.1,1.5-6.8-1.7-4.9c-2.1,1.2-4.6,3.1-6.6,4.6c-1.8,1.3-3.5,2.6-5.3,3.7c-9.9,5.8-26.4,13.7-35.4,2.3c-2.5-3.2-3.5-6-3.8-9.9
		c-0.1-1.9,0.7-8.6,2.8-12.3c2-3.5,3.6-6.8,5.9-10.2c5.6-8.3,13.5-16.4,21.7-22.2c9.2-6.5,27.1-17.9,38.3-18.9
		c4.1-0.4,9.6,0.7,11.1,5.1c3.2,9.1-8.7,18.4-14.9,23c-8.8,6.6-20.6,10.6-31.3,13.1l-1.1,0.2l-0.7,0c-2.5,0.5-5.9,0.9-5.9,0.9
		s-1,0.9-2.3,2.1c-0.7,0.6-1.4,1.3-2.2,2.2c-0.7,0.7-1.3,1.4-1.8,2.1l-1.2,1.5c-5.6,7-11.5,16.9-8.5,21.1c5.4,7.4,21.2-1.5,32.9-9.1
		c5.2-3.4,9.5-6.6,11.8-8c4.6-2.9,7.8-8.5,11.3-12.6c7.1-8.1,16.1-16.6,25.4-22.2c6.9-4.2,31.7-17.7,39-11.9c1.5,1.2,3.2,5.7,3.5,6
		c2,1.8,5.8-5.9,10.8-5.9c1.3,0,11.7-2,10,2c-1.4,3.1-16.1,17.6-19.5,21.7c-4.9,5.7-25.3,29-27.5,33.9l0.7,0.6
		c5.5-1.9,14.5-6.6,22.7-11.4c6.4-3.8,12.3-7.7,15.9-10.6c5.4-4.3,10.5-9.5,15.7-14.2c10.3-9.4,33.4-23.9,47.7-22.3
		c5.7,0.6,5.1,6.8,7.5,7.4c2.7-1,4.6-3.7,6.9-5.4c1.4-1,12-2.1,12.6,0.2c0.4,1.3-1.6,3.1-2.3,3.9c-15.3,17.1-31.7,33.8-44.9,52.6
		l0.6,0.9c3.7-0.8,6.7-2.3,9.9-4.4c4.2-2.9,9.1-5,13.6-7.5c1.6-0.9,3.1-1.8,4.5-2.8c4.1-2.9,8.7-4.7,12.7-7.8c2.1-1.6,4.2-3,6.4-4.5
		c3.1-2.1,5.5-5.9,8.2-8.5c7.8-7.4,15.2-13.3,23.9-19.3c7.2-4.9,31.8-17.7,37-5.2c0.3,0.8,0.6,1.7,0.7,2.9c0.1,1.3-0.1,3.1-0.1,3.1
		c-0.4,1.7-1,2.8-1.9,4.2c-3.9,6.4-12.1,13.2-18.7,16.8c-4.7,2.6-9.2,5-14.2,6.4c-9.5,2.6-19.2,4.1-19.2,4.1l-1.7,1.9
		c-4.2,4.3-26.1,30.6-7.3,29.6c4.4-0.2,10.2-2.8,15-5.4c2.6-1.5,5.1-2.9,6.1-3.4c11.6-5.8,37.6-32.1,58.6-54.5h-12
		c-1.1,0-1.3-0.6-0.5-1.4l4-3.7c0.8-0.7,2.3-1.3,3.4-1.3h11.1c13.4-14.5,23.6-26.1,24.5-27.1c1.3-1.4,10.4-11.1,11.2-11.6
		c1.1-0.6,2.2-1,3-1h12.9c1.1,0,1.3,0.6,0.5,1.4l-1,1.1c-2.2,3.4-17,19-34.2,37.3h5.4c1.1,0,1.3,0.6,0.5,1.3l-4,3.7
		c-0.8,0.7-2.3,1.4-3.4,1.4h-4.6c-26,27.8-54.7,58.9-52.8,62.4c1.9,3.7,15.5-3.1,24.5-8.4c14.7-9.5,37.3-32.6,57.3-54h-13.9
		c-1.1,0-1.3-0.6-0.5-1.4l4-3.7c0.8-0.7,2.3-1.3,3.4-1.3h13c13.4-14.5,23.6-26.1,24.5-27.1c1.3-1.4,10.4-11.1,11.2-11.6
		c1.1-0.6,2.2-1,3-1h12.9c1.1,0,1.3,0.6,0.5,1.4l-1,1.1c-2.2,3.4-17.1,19-34.2,37.3h15.8c1.1,0,1.3,0.6,0.5,1.3l-4,3.7
		c-0.8,0.7-2.3,1.4-3.4,1.4h-15c-26,27.8-54.7,58.9-52.8,62.4c1.1,2.1,5.6,0.8,10.9-1.6c8.2-3.9,17.8-10.5,21.9-13.6
		c4-3,9.6-8.2,13.8-10.4l1.6,0.2c0.6,1,0.3,2.2,0,3.2c-1.3,4.5-16.3,14.7-28.4,21.7c-2.2,1.3-4.4,2.6-6.7,3.7
		C482.9,229,475.8,230.7,471.5,226.7 M1080.3,226.7c-2-1.9-3.3-4.9-3.8-7.9l-0.1-1.1c-0.1-0.8-0.1-1.6-0.1-2.4c0.1-2.6,1-3.7,1-3.7
		s-4.1,2.3-6.4,3.8l-1.8,1.1c-10.5,7.1-27,17.2-34.7,10.1c-2-1.9-3.3-4.9-3.8-7.9l-0.1-1.1c-0.1-0.8-0.1-1.6-0.1-2.4
		c0.1-2.6,1-3.7,1-3.7s-4.1,2.3-6.4,3.8c-3.4,2.2-8,5.2-12.5,7.8c-5.1,2.9-10.3,5.3-13.9,5.2c-3.3-0.1-7-3-8.2-6.1
		c-0.5-1.3,0-4.4,0.2-7c0.6-3,1.3-5.5,1.3-5.5s-4.8,3.2-6.9,4.7l-0.9,0.9c-7.5,5.9-16.9,14.7-26.7,12.2c-4.8-1.2-5.8-5.7-5.7-10.2
		l0.2-1.3c0.1-4.9,2-11,2-11s-4.8,3.2-6.9,4.7l-0.5,0.4c-11.2,8-30.6,23.9-39.5,14.2c-4.3-4.7-3.4-12.4-0.9-17.6
		c18.7-38.2,81.4-97.3,116.3-121.8c5.6-4,33.2-24.4,37.9-12.3c5.5,14.2-74.4,72.5-81.6,77.8c-13.2,9.7-28.6,19-40.1,30.7
		c-6.2,6.3-12.3,14.8-16.9,22.3c-2.2,3.5-8.2,12.1-7.6,16.2c0.6,4.2,8.2,0.4,10-0.4c14.3-6.5,27.1-18.2,39.4-27.8
		c2.1-1.6,3.1-3.7,5.2-5.3c3.2-2.5,5.9-6.1,9.1-8.7c13.7-11,28.5-21.4,45.7-25.7c5.2-1.3,8.9,0.3,11.6,1.9c2.1,1.3,3.6,2.6,4.5,2.4
		c1.6-0.4,4.3-2.6,6-3.2c1.7-0.6,10.2-0.8,12-0.5c7-0.1-0.9,5.8-8.3,12.9c-12.4,11.9-33.2,30.8-43.7,45.7c-1,1.5-6.5,9.1-3.6,10.1
		c1.2,0.4,5.3-1.6,9-3.6c2.6-1.4,5.1-2.8,6.1-3.4c11.6-5.8,37.6-32.1,58.6-54.5h-12c-1.1,0-1.3-0.6-0.5-1.4l4-3.7
		c0.8-0.7,2.3-1.3,3.4-1.3h11.1c13.4-14.5,23.6-26.1,24.5-27.1c1.3-1.4,10.4-11.1,11.2-11.6c1.1-0.6,2.2-1,3-1h12.9
		c1.1,0,1.3,0.6,0.5,1.4l-1,1.1c-2.2,3.4-17.1,19-34.3,37.3h5.4c1.1,0,1.3,0.6,0.5,1.3l-4,3.7c-0.8,0.7-2.3,1.4-3.4,1.4h-4.6
		c-26,27.8-54.7,58.9-52.8,62.4c1.9,3.7,15.5-3.1,24.5-8.4c14.7-9.5,37.3-32.6,57.3-54h-13.9c-1.1,0-1.3-0.6-0.5-1.4l4-3.7
		c0.8-0.7,2.3-1.3,3.4-1.3h13c13.4-14.5,23.6-26.1,24.5-27.1c1.3-1.4,10.4-11.1,11.2-11.6c1.1-0.6,2.2-1,3-1h12.9
		c1.1,0,1.3,0.6,0.5,1.4l-1,1.1c-2.2,3.4-17.1,19-34.3,37.3h15.8c1.1,0,1.3,0.6,0.5,1.3l-4,3.7c-0.8,0.7-2.3,1.4-3.4,1.4h-15
		c-26,27.8-54.7,58.9-52.8,62.4c1.1,2.1,5.6,0.8,10.9-1.6c8.2-3.9,17.8-10.5,21.9-13.6c4-3,9.6-8.2,13.8-10.4l1.6,0.2
		c0.6,1,0.3,2.2,0,3.2c-1.3,4.5-16.3,14.7-28.4,21.7c-2.2,1.3-4.4,2.6-6.7,3.7C1091.7,229,1084.6,230.7,1080.3,226.7 M1032.9,159.4
		c-3.5-8.8-31.5,15.2-35.1,18.5c-8.6,7.6-31.9,30.3-35.2,40.5c-2.4,7.2,9.8-0.7,11-1.4c11.9-7,22.8-18.2,32.4-28
		c6.9-7.1,18.6-16.1,24.1-23.5C1031.2,164,1033.6,161.1,1032.9,159.4 M978.9,137.9c-6.1,6.2-12.9,12.1-18.2,19
		c-1.3,1.6-2.2,2.8-2.2,2.8s3.1-1.9,8.1-5.5c6.4-4.4,14.4-10,19-14.4c5.6-5.4,12.5-10.2,18.6-15.2c6.1-5,47.2-40.8,47.1-45.4
		c-0.1-2.2-5.9,1.4-6.7,1.8c-8,4.3-16.3,12-23.1,18C1006.7,111.8,992.4,124.1,978.9,137.9 M637.5,178.8c-1.7,1.7-5.3,0.6-10-0.5
		c-5.7-1.4-12.8-2.7-19.4,1.1c-12.5,7.2-32.1,38.6-16.5,50.1c9.1,6.7,31.5-1.7,37.3-10.3c2.2-3.3,4.1-7.5,5-11.4
		c-6.8-2.9-13.1-3.3-20.4-3c-5.4,0.2-9.1,6.9-5.1,11.1c0.5,0.5,2.5,1.6,3,0.8c-3.3-6.4,8.4-10.8,7.7-1.6c-0.2,3-3.3,4.8-5.4,5.5
		c-10.6,3.5-13-7.6-10.5-15.3c2.6-8.1,13.7-11.2,21.3-11.5c7.1-0.4,14.4,1.2,21.8,2.7c8.7,1.8,17.5,3.7,25.7,2.3
		c14.8-2.5,10.9-17.3,1.3-14.2c3.3,11.5-13,13.9-13,2.9c0-12.8,27.5-9.3,26.4,4.8c-0.2,2.3-1.3,4.8-2.4,6.8
		c-7.2,13.7-24.7,14.8-37.9,11c-1.7,2.7-3,5.9-5.2,8.3c-12.1,13.2-32.6,24.4-50.9,22.9c-8.9-0.8-20.2-9.1-23-17.7
		c-2.7-8.2-2.8-11.6,0.2-20.4c5.7-16.9,18.5-26.2,35.6-30.3c1.3-0.3,8.2-1.2,8.2-2.9c0-2.2-1.9-3.4-1.8-7.7
		c0.3-11.9,15.8-21.4,26.1-24.4c11-3.2,23.5-5,31.6,5.2c1.9,2.4,3.4,7,2.6,10c-1.9,7.3-14.5,15.9-19.6,7c-5.5-9.6,16-9.8,14.1-14.4
		c-5.6-13.2-34.9,3.5-39.4,17C621.1,174,639.4,170,637.5,178.8 M958.1,69.7c2.2-1.6,5.4-3.6,8.9-5.6c-1.6-2.6-3.9-5.3-6.9-8.3
		c-8.6-8.2-16.7-9.7-29.1-11.1c-33.9-4-79.5,23.2-97.9,50.7c-2.6,3.8-5.4,9.6-5.7,14.3c-0.3,4.1-0.2,8.6,2.5,11.8
		c21.1,25.2,83.1-19.8,88.9-44.5c4.2-4.1,2.7,6.6,1.4,9.1c-3.7,6.8-18.5,22-24.8,26.8c-10.1,7.7-21.2,13.6-33.1,18
		c-7.3,2.7-14.4,3.5-22.1,1.8c-8.5-1.9-17.7-11.2-18.6-20.1c-0.9-8.3,3.9-20.5,8.4-27.3c5-7.5,16.1-19.5,24.6-25.3
		c21.6-14.7,41.3-20.2,67.2-21.6c9.4-0.5,17.7,1.3,25.1,4.1c6.3,2.4,11.7,6,16.4,10.3c2.5,2.5,5.6,5.6,8.2,8.7
		c2.5-1.4,5-2.8,7.2-3.9l1.2-0.6c1.1-0.6,17.2-8.3,25.5-7.5c3.4,0.3,6.5,1.3,0.7,3c-20.8,5.9-30.3,11.5-32,12.4c1,1.5,1.9,3,2.3,4.3
		l0.3,0.8c2.9,8.8,5.4,15.1,3.3,24.6c-1.9,8.9-4.8,17.8-9.9,25.5c-16.6,25.2-45,41.5-74.9,44c-2.1,0.1-4.1,0.2-6.1,0.2
		c-3,4.8-6.5,9.9-10.2,15.2c-5.6,7.3-11.2,14.7-18,20.9c-28.1,25.8-59.6,35-97.3,35c-15.5,0-28.9-4.8-40.5-11.7
		c-13-7.7-17.9-30-12.2-43.4c8.1-19,36.2-37,52.7-43.3c19-7.2,54.3-10.3,70.7,3.4c3,2.5,5.3,5.5,7.2,9.1c4.5,8.6,0.3,21-5.5,28.1
		c-12.3,15.1-42.7,25.7-61.7,25.8c-3.9,0-11.2,0.1-13.8-3.2c-0.6-0.7-0.8-2,0.3-2.3c2.8-0.1,5.5,0.2,8.2,0.5
		c3.3,0.4,6.6,0.7,9.9,0.4c14.9-1.3,27.4-6.2,40.5-13c10-5.2,21.4-17.8,20.1-29.8c-0.9-7.6-7.5-13.9-14.4-16.3
		c-41.4-14.8-133.6,25.3-106.3,73.8c3.4,6,11.2,11,17.4,13.5c26.5,10.5,57.1-0.3,79.4-15.1c13.1-8.7,22.9-19.9,34.1-30.8
		c1.4-1.4,5.1-5.2,8.5-8.8l1.2-1.3c1.9-2.1,3.6-4.1,4.5-5.4c1-1.2,1.9-2.3,2.7-3.2c-2.3-0.6-4.1-1.2-5.2-2c-4.7-3.4-8.8-8.1-0.3-3.6
		c2.2,1.2,5.1,2,8.3,2.5l1-1.1c1-0.5,13.6-15.5,15.4-17.5c4.6-5.1,9.5-10,13.9-15.3c7.4-8.9,14.6-18.3,22.5-26.8
		c8.2-8.9,20.6-17.9,30.6-24.8C954.3,72.4,956.2,71.1,958.1,69.7 M971.5,77.7c-0.1-3.6-1-6.6-2.5-9.8c-2.5,1.7-9.2,6.2-14.8,10.9
		c-20.8,17.2-42.2,44.1-55.6,69.2c-1.8,3.3-4.8,8.6-6.6,11.5c1.4-0.2,2.8-0.4,4.1-0.6c6.4-0.5,23.2-6.4,27.4-8.3
		c18.5-8.3,36.4-33,44.2-51.2C969.7,94.7,971.7,85,971.5,77.7 M1151.9,214.8v-17.7h5.5c2.3,0,3.2,0.1,4.2,0.6
		c1.5,0.7,2.4,2.3,2.4,4.2c0,2.2-1,3.6-3.4,4.9l4.7,8h-4.1l-4.1-7.4h-1.5v7.4H1151.9z M1155.6,204.6h1.2c2.1,0.1,3.4-0.8,3.4-2.5
		c0-1.5-0.7-2-2.7-2h-0.8h-1.1V204.6z M1158,190.2c8.5,0,15.5,7.1,15.5,15.8c0,8.7-7,15.8-15.7,15.8c-8.7,0-15.8-7.1-15.8-15.8
		C1142,197.1,1149.1,190.2,1158,190.2 M1158,192.9c-7.3,0-13,5.8-13,13.1c0,7.2,5.8,13,12.8,13c7,0,12.8-5.9,12.8-13
		C1170.6,198.8,1164.9,192.9,1158,192.9"/>
</g>
</svg>
