<svg width="74" height="59" viewBox="0 0 74 59" fill="none" xmlns="http://www.w3.org/2000/svg">
<path fill-rule="evenodd" clip-rule="evenodd" d="M23.7237 27.1953C22.71 26.367 22.197 25.912 22.197 25.912C22.2222 25.912 21.0011 24.8555 20.5464 24.3992C19.8486 23.6984 19.8538 22.6525 19.8538 22.0978C19.8538 21.5416 19.8538 19.3148 19.8538 18.7085C19.8538 18.1033 20.5596 17.7224 21.0633 17.7475C21.5667 17.7729 22.2355 18.0768 22.2355 18.7085V23.0732H25.4471C25.4471 23.0732 25.4471 18.7085 25.4471 17.7475C25.4471 16.9874 24.4413 14.2057 21.0633 14.1935C17.6862 14.1803 16.6791 16.13 16.6791 17.7475C16.6791 19.3653 16.6791 22.6804 16.6791 23.5642C16.6791 24.4481 17.057 26.1217 18.4184 27.2351C19.431 28.0631 19.8035 28.4043 19.8035 28.4043C19.7784 28.4043 21.1398 29.5746 21.5945 30.0312C22.2924 30.7319 22.2869 31.7779 22.2869 32.3325C22.2869 32.8872 22.2723 35.443 22.2723 36.0484C22.2723 36.6535 21.5667 37.0358 21.0633 37.0093C20.5596 36.985 19.892 36.6798 19.892 36.0484L19.9066 31.3583H16.6936C16.6936 31.3583 16.6791 36.0484 16.6791 37.0093C16.6791 37.7708 17.6862 40.5496 21.0633 40.563C24.4413 40.5763 25.4471 38.6282 25.4471 37.0093C25.4471 35.3927 25.4616 31.7486 25.4616 30.8647C25.4616 29.9809 25.0837 28.3087 23.7237 27.1953Z" fill="#20374D"/>
<path fill-rule="evenodd" clip-rule="evenodd" d="M39.9617 40.3402H36.8096V20.605H39.9617V21.4795C40.6145 20.9246 40.9504 20.7204 42.1503 20.7204V23.9082C40.7678 23.9082 39.9617 24.5796 39.9617 25.6146C39.9617 26.5012 39.9617 40.3402 39.9617 40.3402Z" fill="#20374D"/>
<path fill-rule="evenodd" clip-rule="evenodd" d="M48.4258 40.3002H45.3251V23.9082H43.6256V20.7204H45.3251V16.1671H48.4258V20.7204H51.1458V23.9082H48.4258V40.3002Z" fill="#20374D"/>
<path fill-rule="evenodd" clip-rule="evenodd" d="M70.3234 19.3469C70.1039 19.0508 69.7865 19.2726 69.9928 19.5314C71.7057 21.6786 74.8779 28.5477 70.1039 36.895C65.7532 44.5019 54.688 52.8492 35.665 52.223C19.9583 51.7027 5.13555 41.9301 5.28355 28.8979C5.41174 17.4957 16.1055 2.09451 37.3422 1.42715C40.1653 1.33959 44.0352 1.37274 47.0221 1.81604C54.5213 2.9322 58.0314 4.18484 61.1986 5.62998C61.6028 5.81448 61.6397 5.49989 61.402 5.35266C59.0308 3.88762 52.4068 0.325631 39.7211 0.020415C21.2111 -0.422891 2.60999 10.3134 0.19531 28.5292C-2.13216 46.0812 16.7135 58.3676 36.9193 58.8134C57.1252 59.2565 72.3663 45.6302 73.7889 31.7114C74.6373 23.4185 70.3234 19.3469 70.3234 19.3469Z" fill="#F5E34B"/>
<path fill-rule="evenodd" clip-rule="evenodd" d="M60.4054 40.3002H57.2307C57.2307 40.3002 57.2546 39.284 57.2307 39.3157C56.8898 39.7696 55.9832 40.2739 55.1532 40.3002C54.0191 40.3402 52.2058 39.706 52.2429 38.0229C52.2798 36.3431 52.2429 33.4711 52.2429 31.9531C52.2429 30.4348 52.959 29.4473 53.6411 28.9167C54.3206 28.3858 54.9629 27.7793 55.6052 27.3227C56.2475 26.8673 57.1938 26.0461 57.2307 25.3122C57.2678 24.5783 57.2307 24.8714 57.2307 24.2877C57.2307 23.3627 56.6255 23.1875 56.3243 23.1875C56.0228 23.1875 55.3805 23.3627 55.3805 24.2491V26.6021H52.2429C52.2429 26.6021 52.2429 25.3362 52.2429 23.3627C52.2429 21.3892 54.5849 20.1896 56.3243 20.1896C58.1745 20.1896 60.4054 21.4146 60.4054 23.3627C60.4054 25.0705 60.4054 40.3002 60.4054 40.3002ZM55.6817 30.8913C55.4916 31.1168 55.3805 31.3452 55.3805 32.0301C55.3805 32.7121 55.3409 35.775 55.3805 36.3432C55.4176 36.9138 55.9092 37.1525 56.3243 37.1525C56.7391 37.1525 57.2307 36.9138 57.2307 36.3432C57.2307 35.775 57.2307 29.6757 57.2307 29.6757C57.2307 29.6757 55.8693 30.6632 55.6817 30.8913Z" fill="#20374D"/>
<path fill-rule="evenodd" clip-rule="evenodd" d="M35.1971 31.3451H30.2844V36.3431C30.2844 36.9243 30.7894 37.2027 31.166 37.2027C31.544 37.2027 32.0238 36.9266 32.0238 36.3431V33.7605H35.1971V37.1524C35.1971 39.7828 33.1315 40.5391 31.1913 40.5683C29.5285 40.5951 27.135 39.8093 27.1097 37.1287C27.0847 34.4478 27.1097 25.5657 27.1097 23.3626C27.1097 21.011 29.6553 20.2268 31.0907 20.2268C32.5274 20.2268 35.1971 21.035 35.1971 23.3626C35.1971 25.0309 35.1971 31.3451 35.1971 31.3451ZM32.0238 24.5782C32.0238 23.843 31.3682 23.6916 31.141 23.6916C30.9149 23.6916 30.2844 23.7941 30.2844 24.5782V28.2703H32.0238C32.0238 28.2703 32.0238 25.0572 32.0238 24.5782Z" fill="#20374D"/>
<path fill-rule="evenodd" clip-rule="evenodd" d="M69.8131 49.2027C69.8131 48.3001 70.5399 47.6364 71.399 47.6364C72.2503 47.6364 72.9771 48.3001 72.9771 49.2027C72.9771 50.1103 72.2503 50.7738 71.399 50.7738C70.5399 50.7738 69.8131 50.1103 69.8131 49.2027ZM71.399 50.5137C72.1049 50.5137 72.6627 49.9563 72.6627 49.2028C72.6627 48.4595 72.1049 47.8996 71.399 47.8996C70.6827 47.8996 70.1251 48.4595 70.1251 49.2028C70.1251 49.9563 70.6827 50.5137 71.399 50.5137ZM71.0686 50.1105H70.7966V48.3002H71.481C71.9068 48.3002 72.1181 48.4595 72.1181 48.8151C72.1181 49.1392 71.9145 49.2796 71.6502 49.3141L72.1629 50.1105H71.8565L71.3833 49.3249H71.0686V50.1105ZM71.394 49.0939C71.6263 49.0939 71.8328 49.0782 71.8328 48.7994C71.8328 48.5764 71.6317 48.5337 71.4414 48.5337H71.0687V49.0939H71.394Z" fill="#20374D"/>
</svg>
