<svg xmlns="http://www.w3.org/2000/svg" fill="none" viewBox="0 0 369 251" height="251" width="369">
<path fill="#43695B" d="M186.24 63.9C186.24 63.9 186.21 63.9 186.19 63.9C186.2 63.9 186.22 63.91 186.24 63.91V63.9Z"></path>
<path fill="#43695B" d="M200.82 82.47C200.82 82.47 200.79 82.47 200.77 82.47C200.79 82.47 200.8 82.48 200.82 82.49V82.47Z"></path>
<path fill="#43695B" d="M166.47 56.6C166.47 56.6 166.39 56.68 166.37 56.7C166.37 56.7 166.31 56.68 166.23 56.66C166.31 56.64 166.39 56.62 166.47 56.6Z"></path>
<path fill="#43695B" d="M166.38 56.78C166.38 56.78 166.35 56.78 166.32 56.77C166.3 56.77 166.26 56.75 166.22 56.74L165.95 56.67L166.21 56.59C166.21 56.59 166.29 56.57 166.33 56.56C166.37 56.56 166.41 56.54 166.45 56.53L166.69 56.46L166.54 56.65C166.54 56.65 166.5 56.7 166.48 56.72C166.47 56.73 166.46 56.74 166.45 56.75L166.43 56.78H166.39H166.38Z"></path>
<path fill="#43695B" d="M177.07 54.48C177.01 54.5 176.96 54.53 176.9 54.55C176.63 54.66 176.35 54.75 176.07 54.8C175.85 54.85 175.62 54.87 175.39 54.87C175.67 54.83 175.87 54.8 175.97 54.77C176.34 54.69 176.71 54.59 177.08 54.48H177.07Z"></path>
<path fill="#43695B" d="M175.39 54.95V54.79C175.68 54.75 175.86 54.72 175.95 54.7C176.27 54.63 176.61 54.54 177.05 54.41L177.1 54.56L176.93 54.63C176.63 54.75 176.35 54.84 176.08 54.88C175.86 54.93 175.62 54.95 175.38 54.95H175.39Z"></path>
<path fill="#43695B" d="M185.65 43.39C185.65 43.39 185.56 43.41 185.52 43.39C185.56 43.39 185.61 43.39 185.65 43.39Z"></path>
<path fill="#43695B" d="M195.91 47.98C195.78 48.03 195.64 48.05 195.51 48.1C195.84 48.06 196.47 47.96 196.78 48C196.83 48.05 196.83 48.13 196.82 48.2C196.8 48.57 196.61 48.91 196.33 49.15C196.08 49.36 195.64 49.58 195.3 49.6C195.25 49.6 195.16 49.6 195.12 49.63C195.17 49.65 196.04 49.65 196.19 49.66C196.17 50.05 196.04 50.34 195.74 50.6C195.35 50.95 194.89 51.05 194.39 51.09C194.68 51.13 194.98 51.19 195.27 51.25C195.14 51.63 194.93 51.91 194.57 52.08C194.22 52.25 193.85 52.26 193.48 52.26C193.76 52.35 194.04 52.43 194.32 52.51C194.14 52.86 193.83 53.11 193.46 53.23C193.12 53.34 192.78 53.32 192.43 53.28C192.65 53.38 192.87 53.49 193.08 53.61C192.83 53.91 192.52 54.11 192.11 54.13C191.89 54.15 191.69 54.09 191.49 54.01C191.63 54.11 191.78 54.19 191.92 54.28C191.4 54.72 190.57 54.77 189.9 54.71C189.48 54.68 188.68 54.54 188.41 54.19C188.35 54.13 188.35 54.05 188.33 53.98C188.13 54.54 187.87 55.06 187.49 55.51C187.39 55.63 187.38 55.81 187.49 55.93L188.17 56.64C188.34 56.82 188.57 57.01 188.71 57.23C188.76 57.3 188.78 57.38 188.78 57.47C188.78 57.61 188.72 57.74 188.62 57.83C188.53 57.91 188.41 57.95 188.29 57.94C188.13 57.92 188 57.81 187.88 57.72C187.94 57.89 187.98 58.05 187.9 58.23C187.85 58.34 187.76 58.43 187.65 58.47C187.51 58.52 187.37 58.49 187.25 58.43C187.15 58.38 187.09 58.32 187.02 58.24C187.05 58.41 187.05 58.57 186.96 58.73C186.9 58.83 186.79 58.9 186.67 58.91C186.52 58.94 186.38 58.89 186.25 58.81C186.16 58.75 186.11 58.66 186.04 58.58C186.02 58.79 186.01 58.96 185.83 59.1C185.76 59.16 185.66 59.2 185.56 59.21C185.52 59.23 185.47 59.23 185.43 59.21C185.33 59.21 185.24 59.15 185.16 59.09C184.99 58.95 184.98 58.77 184.96 58.57C184.9 58.66 184.83 58.74 184.75 58.8C184.62 58.89 184.48 58.94 184.33 58.9C184.21 58.88 184.11 58.82 184.04 58.72C183.94 58.58 183.94 58.4 183.98 58.23C183.91 58.31 183.84 58.37 183.75 58.43C183.62 58.49 183.48 58.51 183.35 58.46C183.23 58.42 183.14 58.33 183.1 58.22C183.01 58.05 183.05 57.89 183.1 57.71C182.98 57.81 182.85 57.92 182.69 57.93C182.58 57.93 182.46 57.9 182.37 57.82C182.27 57.73 182.21 57.61 182.21 57.46C182.21 57.37 182.23 57.29 182.28 57.22C182.42 57.01 182.64 56.81 182.82 56.63L183.5 55.93C183.61 55.81 183.61 55.63 183.5 55.5C183.12 55.05 182.86 54.53 182.67 53.97C182.65 54.06 182.65 54.12 182.59 54.19C182.32 54.53 181.52 54.68 181.1 54.71C180.44 54.77 179.61 54.71 179.09 54.27C179.23 54.18 179.38 54.1 179.52 54C179.32 54.08 179.11 54.14 178.9 54.12C178.49 54.1 178.18 53.9 177.92 53.6C178.13 53.49 178.36 53.38 178.58 53.28C178.23 53.32 177.88 53.34 177.55 53.22C177.18 53.1 176.87 52.85 176.69 52.5C176.97 52.42 177.25 52.33 177.53 52.25C177.15 52.25 176.79 52.25 176.44 52.08C176.07 51.9 175.87 51.62 175.73 51.25C176.03 51.18 176.32 51.12 176.62 51.09C176.12 51.03 175.65 50.94 175.26 50.59C174.97 50.34 174.85 50.04 174.82 49.66C174.96 49.64 175.84 49.64 175.88 49.62C175.84 49.6 175.75 49.59 175.7 49.59C175.37 49.57 174.93 49.36 174.67 49.14C174.4 48.9 174.2 48.56 174.18 48.19C174.18 48.13 174.18 48.04 174.23 47.99C174.53 47.95 175.17 48.06 175.5 48.09C175.36 48.04 175.23 48.02 175.1 47.97C174.69 47.83 174.29 47.6 174.05 47.23C173.84 46.9 173.8 46.55 173.88 46.18C174.4 46.24 174.9 46.39 175.41 46.48C174.89 46.3 174.4 46.03 174.1 45.55C173.85 45.15 173.83 44.75 173.93 44.3C174.72 44.65 175.49 45.05 176.26 45.43C177.32 45.95 178.39 46.48 179.43 47.03C180.6 47.66 181.55 48.76 182.02 50C182.16 50.35 182.23 50.72 182.35 51.08C182.35 50.42 182.55 49.85 183.03 49.37C183.21 49.55 183.4 49.68 183.63 49.79C183.58 49.83 183.53 49.87 183.49 49.92C183.28 50.14 183.16 50.44 183.16 50.75C183.16 51.05 183.3 51.34 183.53 51.54C183.75 51.75 183.96 51.87 184.2 51.87C185.05 51.87 185.31 52.43 185.47 52.72C185.64 52.43 185.89 51.87 186.74 51.87C186.99 51.87 187.19 51.74 187.42 51.54C187.64 51.34 187.78 51.05 187.79 50.75C187.79 50.44 187.68 50.15 187.46 49.92C187.41 49.87 187.36 49.83 187.32 49.79C187.55 49.68 187.74 49.55 187.92 49.37C188.4 49.85 188.59 50.43 188.59 51.1V51.08C188.71 50.72 188.78 50.36 188.92 50C189.41 48.78 190.35 47.66 191.52 47.04C192.56 46.48 193.63 45.97 194.69 45.44C195.46 45.06 196.23 44.66 197.02 44.3C197.12 44.75 197.1 45.16 196.85 45.56C196.56 46.04 196.06 46.31 195.55 46.49C196.06 46.39 196.56 46.25 197.08 46.19C197.16 46.56 197.12 46.91 196.91 47.24C196.67 47.61 196.27 47.84 195.86 47.98H195.91Z"></path>
<path fill="#43695B" d="M184.03 48.63C184.45 48.42 184.86 48.32 185.33 48.3C185.87 48.25 186.46 48.37 186.93 48.63C187.33 48.55 187.7 48.44 188.07 48.29C187.59 49.84 186.37 49.22 185.64 50.12L185.54 50.27C184.91 49.47 184.45 49.69 183.71 49.29C183.32 49.08 183.08 48.77 182.95 48.35C183.3 48.47 183.66 48.55 184.02 48.62L184.03 48.63Z"></path>
<path fill="#43695B" d="M184.54 51.47C184.14 51.53 183.78 51.25 183.72 50.85C183.67 50.45 183.94 50.09 184.34 50.03C184.74 49.98 185.1 50.25 185.15 50.65C185.2 51.05 184.93 51.41 184.53 51.47H184.54Z"></path>
<path fill="#43695B" d="M186.69 51.42C186.32 51.49 185.96 51.24 185.89 50.87C185.82 50.5 186.06 50.14 186.43 50.07C186.8 50 187.16 50.24 187.23 50.62C187.3 50.99 187.05 51.35 186.68 51.42H186.69Z"></path>
<path fill="#43695B" d="M166.47 56.6C166.47 56.6 166.39 56.68 166.37 56.7C166.37 56.7 166.31 56.68 166.23 56.66C166.31 56.64 166.39 56.62 166.47 56.6Z"></path>
<path fill="#43695B" d="M166.38 56.78C166.38 56.78 166.35 56.78 166.31 56.77C166.29 56.77 166.25 56.75 166.21 56.74L165.94 56.67L166.21 56.59C166.21 56.59 166.29 56.57 166.33 56.56C166.37 56.55 166.41 56.54 166.45 56.53L166.69 56.46L166.54 56.66C166.54 56.66 166.5 56.71 166.48 56.73C166.47 56.74 166.46 56.75 166.45 56.76L166.43 56.79H166.39L166.38 56.78Z"></path>
<path fill="#43695B" d="M185.5 130.31L185.09 130.11C162.82 119.42 151.26 95.42 152.53 62.53L152.57 61.62H153.48C160.89 61.62 165.56 59.23 170.08 56.92C173.26 55.29 176.56 53.61 180.68 52.85L181.02 54.72C177.17 55.43 174.14 56.98 170.94 58.62C166.41 60.94 161.73 63.33 154.4 63.52C153.41 94.94 164.44 117.88 185.51 128.22C206.58 117.88 217.61 94.94 216.62 63.52C209.29 63.33 204.61 60.94 200.08 58.62C196.84 56.96 193.78 55.4 189.87 54.7L190.2 52.83C194.39 53.58 197.72 55.28 200.94 56.93C205.46 59.24 210.13 61.63 217.53 61.63H218.44L218.48 62.54C219.75 95.43 208.19 119.43 185.92 130.12L185.51 130.32L185.5 130.31Z"></path>
<path fill="#43695B" d="M183.89 54.26C183.61 54.12 183.33 54.02 183.05 53.93C182.76 53.83 182.47 53.77 182.18 53.72C181.89 53.67 181.58 53.65 181.29 53.64C180.99 53.64 180.69 53.64 180.4 53.67C180.36 53.67 180.32 53.67 180.29 53.67L180.18 53.69L180.01 53.71C179.94 53.75 179.87 53.79 179.8 53.83C178.49 54.49 177.26 55.34 175.86 55.72C174.46 56.1 166.91 56.4 159.27 60C158.15 60.52 156.97 61.16 156.13 61.98C155.96 61.96 155.79 61.98 155.61 62.04C155.63 62.02 155.64 62 155.66 61.98C157.98 59.4 162.24 57.73 166.26 56.64C166.35 56.66 166.4 56.68 166.4 56.68C166.42 56.66 166.46 56.62 166.5 56.58C169.35 55.82 172.07 55.36 173.89 55.09C173.72 55.06 173.56 55.02 173.4 54.97L173.18 54.91L173.07 54.88C173.07 54.88 173 54.86 172.96 54.85L172.75 54.77C172.67 54.75 172.6 54.72 172.53 54.69L172.43 54.65C172.43 54.65 172.36 54.63 172.32 54.61L172.11 54.52L171.9 54.42L171.69 54.32L171.48 54.22L171.27 54.12L171.17 54.06L171.07 54.01L170.86 53.91L170.06 53.5C169.79 53.36 169.53 53.23 169.26 53.1L169.16 53.05C169.16 53.05 169.13 53.03 169.11 53.03L169.05 53.01L168.85 52.91C168.85 52.91 168.78 52.89 168.75 52.87L168.65 52.83C168.58 52.8 168.51 52.77 168.44 52.74C168.17 52.64 167.89 52.55 167.61 52.49C167.54 52.47 167.47 52.46 167.4 52.45C167.33 52.43 167.26 52.43 167.19 52.42C167.05 52.4 166.9 52.39 166.76 52.39C166.62 52.39 166.47 52.39 166.33 52.41C166.19 52.43 166.05 52.45 165.92 52.49C165.78 52.53 165.65 52.58 165.52 52.63C165.4 52.69 165.27 52.77 165.16 52.84C164.94 53.01 164.75 53.22 164.6 53.46C164.53 53.58 164.46 53.7 164.43 53.83C163.83 55.76 166.34 56.37 166.6 56.46C166.6 56.46 166.56 56.5 166.52 56.54C166.44 56.56 166.36 56.58 166.28 56.6C165.76 56.46 163.92 55.88 164.03 54.21C164.03 54.05 164.07 53.88 164.12 53.73C164.17 53.57 164.24 53.42 164.32 53.28C164.4 53.14 164.49 53 164.6 52.88C164.71 52.76 164.83 52.65 164.96 52.55C165.09 52.45 165.22 52.37 165.37 52.3C165.51 52.23 165.66 52.17 165.82 52.13C165.98 52.08 166.14 52.05 166.29 52.03C166.45 52.01 166.61 52 166.77 52C166.93 52 167.09 52 167.24 52.02C167.32 52.02 167.4 52.04 167.48 52.05C167.55 52.07 167.63 52.07 167.71 52.09C167.86 52.12 168.01 52.16 168.16 52.2C168.31 52.25 168.45 52.3 168.61 52.35C168.68 52.37 168.75 52.41 168.82 52.44L168.92 52.48C168.92 52.48 168.99 52.51 169.02 52.53L169.23 52.62L169.28 52.64C169.28 52.64 169.32 52.66 169.34 52.66L169.44 52.71C169.72 52.84 169.99 52.97 170.26 53.12C170.8 53.39 171.33 53.68 171.87 53.93L171.97 53.98L172.07 54.02L172.27 54.12L172.48 54.21L172.58 54.25L172.68 54.29C172.75 54.31 172.82 54.35 172.89 54.37L173.1 54.44C173.1 54.44 173.17 54.46 173.2 54.48L173.31 54.51L173.52 54.57C173.81 54.65 174.09 54.71 174.38 54.75C174.53 54.77 174.67 54.79 174.82 54.81H174.93H175.04H175.15H175.25C175.31 54.81 175.37 54.81 175.43 54.81C175.66 54.81 175.89 54.79 176.11 54.74C176.4 54.69 176.67 54.6 176.94 54.49C177 54.47 177.05 54.44 177.11 54.42C177.32 54.32 177.54 54.23 177.76 54.13C177.9 54.06 178.03 53.99 178.17 53.94C178.21 53.92 178.24 53.91 178.28 53.9L178.38 53.85L178.55 53.79C178.55 53.79 178.58 53.77 178.61 53.77L178.71 53.73C178.71 53.73 178.79 53.71 178.82 53.7L178.88 53.68C178.88 53.68 178.92 53.66 178.94 53.66L179.05 53.63C179.05 53.63 179.12 53.61 179.16 53.6L179.25 53.58H179.27L179.38 53.55C179.42 53.55 179.46 53.53 179.49 53.53L179.61 53.51C179.61 53.51 179.64 53.51 179.67 53.51H179.73C179.73 53.51 179.8 53.49 179.84 53.49L179.95 53.47C179.95 53.47 179.99 53.47 180.01 53.47H180.07L180.18 53.45L180.29 53.43C180.29 53.43 180.37 53.43 180.41 53.43H180.46C180.52 53.43 180.58 53.43 180.64 53.43H181.09C181.09 53.43 181.17 53.43 181.21 53.43H181.27H181.33C181.4 53.43 181.48 53.45 181.56 53.45H181.67L181.78 53.47C181.82 53.47 181.85 53.49 181.89 53.49L182 53.51C182 53.51 182.04 53.51 182.06 53.51H182.12C182.12 53.51 182.2 53.53 182.24 53.54C182.53 53.6 182.83 53.69 183.11 53.79C183.4 53.9 183.67 54.03 183.94 54.18L183.89 54.26Z"></path>
<path fill="#43695B" d="M155.3 62.23L155.53 62C155.53 62 155.54 61.99 155.55 61.98C155.55 61.97 155.57 61.95 155.58 61.94C157.5 59.81 160.99 58.03 165.94 56.66C165.2 56.42 163.8 55.76 163.9 54.26C163.9 54.1 163.94 53.93 163.99 53.76C164.03 53.61 164.1 53.46 164.2 53.3C164.28 53.15 164.38 53.01 164.49 52.89C164.61 52.77 164.73 52.65 164.86 52.55C165.01 52.44 165.15 52.35 165.29 52.29C165.42 52.23 165.56 52.17 165.75 52.11C165.91 52.06 166.08 52.03 166.23 52.01C166.38 51.99 166.53 51.98 166.72 51.98C166.89 51.98 167.05 51.98 167.2 52C167.24 52 167.28 52.01 167.32 52.02C167.36 52.02 167.4 52.03 167.43 52.04C167.48 52.04 167.52 52.06 167.56 52.06C167.6 52.06 167.64 52.07 167.67 52.08C167.81 52.11 167.96 52.15 168.1 52.19H168.13C168.29 52.25 168.43 52.29 168.58 52.35C168.65 52.37 168.73 52.41 168.8 52.44L168.9 52.48C168.9 52.48 168.94 52.5 168.95 52.5C168.97 52.5 168.99 52.52 169.01 52.53L169.29 52.65C169.29 52.65 169.31 52.66 169.32 52.66L169.42 52.71C169.68 52.83 169.95 52.96 170.24 53.12C170.44 53.22 170.64 53.32 170.84 53.43C171.17 53.6 171.5 53.77 171.84 53.93L172.65 54.28C172.65 54.28 172.72 54.31 172.75 54.32C172.78 54.33 172.81 54.35 172.85 54.36L173.06 54.43C173.06 54.43 173.09 54.44 173.1 54.45C173.12 54.45 173.14 54.47 173.17 54.48L173.48 54.57C173.78 54.65 174.06 54.71 174.33 54.75C174.48 54.77 174.62 54.79 174.77 54.81H174.82H174.89H174.99H175.11H175.21C175.28 54.81 175.32 54.81 175.38 54.81C175.62 54.81 175.84 54.79 176.06 54.74C176.32 54.7 176.59 54.62 176.88 54.5L177.1 54.4C177.29 54.31 177.49 54.23 177.69 54.13C177.83 54.05 177.97 53.99 178.11 53.94H178.14C178.14 53.94 178.2 53.9 178.24 53.9L178.33 53.86L178.5 53.8C178.5 53.8 178.53 53.78 178.56 53.78L178.65 53.74C178.65 53.74 178.73 53.72 178.76 53.71L178.83 53.69C178.83 53.69 178.87 53.67 178.89 53.67L178.99 53.64C178.99 53.64 179.03 53.64 179.04 53.63C179.06 53.63 179.08 53.62 179.11 53.61L179.33 53.56C179.33 53.56 179.41 53.54 179.44 53.54L179.56 53.52L179.6 53.59L179.58 53.51C179.58 53.51 179.61 53.51 179.63 53.51H179.67C179.67 53.51 179.75 53.49 179.79 53.49H179.89C179.89 53.49 179.94 53.47 179.96 53.47L180.23 53.44C180.23 53.44 180.31 53.44 180.35 53.44H180.41C180.41 53.44 180.46 53.44 180.49 53.44C180.52 53.44 180.56 53.44 180.59 53.44H181.04C181.09 53.44 181.12 53.44 181.16 53.44H181.23H181.27C181.35 53.44 181.43 53.46 181.51 53.46L181.74 53.48C181.74 53.48 181.81 53.49 181.84 53.49L181.97 53.52C181.97 53.52 181.99 53.52 182 53.52L182.2 53.56C182.49 53.62 182.79 53.71 183.08 53.82C183.4 53.94 183.67 54.07 183.92 54.22L183.85 54.36C183.6 54.24 183.33 54.13 183.02 54.04C182.76 53.96 182.48 53.89 182.16 53.84C181.89 53.8 181.59 53.77 181.28 53.76C180.96 53.76 180.67 53.76 180.4 53.79C180.37 53.79 180.36 53.79 180.34 53.79C180.32 53.79 180.3 53.79 180.28 53.79L180.03 53.83L179.83 53.94C179.44 54.14 179.06 54.35 178.68 54.56C177.79 55.06 176.86 55.57 175.86 55.84C175.55 55.92 174.96 56 174.15 56.11C171.27 56.5 165.27 57.3 159.28 60.11C158.29 60.57 157.05 61.21 156.16 62.07L156.13 62.1H156.09C155.95 62.08 155.78 62.1 155.61 62.15L155.3 62.25V62.23ZM166.23 56.74C161.27 58.08 157.77 59.82 155.81 61.92C155.9 61.91 155.99 61.91 156.07 61.92C156.97 61.05 158.22 60.41 159.21 59.95C165.22 57.13 171.24 56.32 174.13 55.93C174.94 55.82 175.52 55.74 175.82 55.66C176.8 55.39 177.71 54.88 178.6 54.39C178.97 54.18 179.36 53.97 179.75 53.77L179.99 53.64L180.27 53.6C180.27 53.6 180.31 53.6 180.32 53.6C180.34 53.6 180.37 53.6 180.39 53.6C180.66 53.57 180.96 53.56 181.28 53.57C181.28 53.57 181.29 53.57 181.3 53.57C181.3 53.57 181.29 53.57 181.28 53.57H181.23H181.16C181.12 53.57 181.08 53.57 181.04 53.57H180.6C180.6 53.57 180.54 53.57 180.51 53.57C180.48 53.57 180.45 53.57 180.42 53.57H180.37C180.37 53.57 180.3 53.57 180.25 53.57L179.98 53.6C179.98 53.6 179.94 53.6 179.93 53.6L179.8 53.62C179.8 53.62 179.74 53.62 179.71 53.63L179.61 53.65C179.61 53.65 179.59 53.65 179.57 53.65L179.47 53.67C179.47 53.67 179.4 53.69 179.36 53.69L179.14 53.74C179.14 53.74 179.11 53.74 179.1 53.75C179.08 53.75 179.06 53.76 179.03 53.77L178.9 53.8C178.9 53.8 178.89 53.8 178.88 53.8L178.81 53.82C178.81 53.82 178.74 53.84 178.7 53.85L178.57 53.9C178.57 53.9 178.57 53.9 178.55 53.9L178.37 53.96L178.27 54C178.27 54 178.21 54.02 178.19 54.03H178.16C178.03 54.09 177.9 54.15 177.76 54.23C177.55 54.33 177.36 54.41 177.16 54.5L176.93 54.6C176.63 54.72 176.35 54.81 176.08 54.85C175.86 54.9 175.62 54.92 175.38 54.92C175.32 54.92 175.26 54.92 175.2 54.92L174.76 54.9C174.61 54.88 174.46 54.87 174.31 54.84C174.04 54.8 173.75 54.74 173.44 54.66L173.12 54.56C173.12 54.56 173.08 54.54 173.06 54.54C173.05 54.54 173.03 54.53 173.01 54.52L172.81 54.45C172.81 54.45 172.74 54.42 172.7 54.41C172.67 54.4 172.64 54.38 172.6 54.37L172.18 54.2L171.77 54.02C171.43 53.86 171.09 53.69 170.76 53.52C170.56 53.42 170.36 53.31 170.16 53.21C169.87 53.06 169.61 52.92 169.34 52.81L169.21 52.75C169.21 52.75 169.19 52.74 169.18 52.74L169.13 52.72L168.92 52.64C168.92 52.64 168.88 52.62 168.86 52.61C168.84 52.61 168.82 52.59 168.81 52.59L168.71 52.55C168.64 52.52 168.57 52.49 168.5 52.46C168.35 52.4 168.21 52.36 168.06 52.31H168.04C167.9 52.27 167.76 52.23 167.62 52.2C167.59 52.2 167.55 52.19 167.51 52.18C167.47 52.18 167.42 52.17 167.38 52.16C167.35 52.16 167.31 52.16 167.27 52.15C167.23 52.15 167.19 52.14 167.15 52.13C167 52.11 166.85 52.11 166.69 52.11C166.51 52.11 166.36 52.11 166.22 52.14C166.07 52.16 165.91 52.19 165.76 52.23C165.59 52.28 165.45 52.34 165.33 52.4C165.2 52.46 165.07 52.54 164.93 52.65C164.81 52.75 164.69 52.86 164.58 52.97C164.48 53.08 164.39 53.21 164.31 53.35C164.22 53.5 164.16 53.64 164.12 53.78C164.07 53.93 164.04 54.09 164.04 54.24C163.94 55.81 165.65 56.4 166.21 56.55C166.24 56.55 166.28 56.53 166.31 56.52C166.32 56.52 166.33 56.52 166.35 56.52C165.35 56.21 164.69 55.76 164.38 55.19C164.17 54.79 164.14 54.34 164.29 53.84C164.33 53.69 164.4 53.56 164.47 53.45C164.62 53.2 164.82 52.98 165.05 52.81C165.18 52.72 165.32 52.64 165.42 52.59C165.55 52.53 165.69 52.48 165.83 52.44C165.96 52.4 166.09 52.38 166.26 52.36C166.56 52.33 166.85 52.34 167.13 52.36H167.15C167.22 52.37 167.29 52.38 167.36 52.39C167.43 52.39 167.5 52.41 167.57 52.43C167.83 52.48 168.11 52.56 168.42 52.68C168.47 52.7 168.53 52.72 168.59 52.75L168.74 52.81C168.74 52.81 168.78 52.83 168.8 52.83C168.82 52.83 168.83 52.84 168.85 52.85L169.26 53.03C169.46 53.12 169.65 53.22 169.85 53.32L171.89 54.33L172.31 54.51C172.31 54.51 172.34 54.52 172.36 54.53C172.38 54.53 172.4 54.54 172.42 54.55L172.52 54.59C172.59 54.62 172.65 54.64 172.74 54.67L172.96 54.75C172.96 54.75 172.99 54.75 173.01 54.77C173.02 54.77 173.04 54.78 173.06 54.78L173.4 54.88C173.57 54.93 173.72 54.97 173.88 55L174.33 55.09L173.87 55.16C172.07 55.44 169.34 55.89 166.52 56.65C166.51 56.67 166.49 56.68 166.48 56.69C166.47 56.7 166.46 56.71 166.45 56.72L166.43 56.75H166.39C166.39 56.75 166.36 56.75 166.32 56.74C166.3 56.74 166.28 56.73 166.24 56.72L166.23 56.74ZM166.71 52.51C166.57 52.51 166.43 52.51 166.29 52.53C166.14 52.55 166.01 52.57 165.89 52.61C165.75 52.65 165.62 52.7 165.5 52.75C165.41 52.8 165.27 52.87 165.16 52.96C164.95 53.12 164.77 53.32 164.62 53.56C164.56 53.67 164.49 53.78 164.45 53.92C164.31 54.37 164.34 54.78 164.53 55.15C164.82 55.7 165.48 56.13 166.49 56.44C166.52 56.44 166.55 56.46 166.57 56.46L166.64 56.48C169.21 55.8 171.68 55.37 173.43 55.1C173.4 55.1 173.37 55.08 173.34 55.07L173.01 54.97C173.01 54.97 172.97 54.96 172.95 54.95C172.94 54.95 172.92 54.94 172.91 54.94L172.68 54.86C172.61 54.84 172.53 54.81 172.45 54.78L172.35 54.74C172.35 54.74 172.31 54.73 172.29 54.72C172.27 54.71 172.25 54.71 172.23 54.7L171.18 54.23L170.98 54.13L170.77 54.03L169.75 53.51C169.55 53.41 169.36 53.31 169.16 53.22L168.75 53.04C168.75 53.04 168.73 53.04 168.71 53.03C168.69 53.03 168.66 53.01 168.64 53L168.49 52.94C168.44 52.92 168.39 52.89 168.34 52.88C168.04 52.77 167.77 52.69 167.52 52.64C167.45 52.62 167.38 52.61 167.31 52.6C167.24 52.58 167.17 52.58 167.1 52.57C166.95 52.55 166.81 52.54 166.67 52.54L166.71 52.51Z"></path>
<path fill="#43695B" d="M187.39 54.26C187.67 54.12 187.95 54.02 188.23 53.93C188.52 53.83 188.81 53.77 189.1 53.72C189.39 53.67 189.7 53.65 189.99 53.64C190.29 53.64 190.59 53.64 190.88 53.67C190.92 53.67 190.96 53.67 190.99 53.67L191.1 53.69L191.27 53.71C191.34 53.75 191.41 53.79 191.48 53.83C192.79 54.49 194.02 55.34 195.42 55.72C196.82 56.1 204.37 56.4 212.01 60C213.13 60.52 214.31 61.16 215.15 61.98C215.32 61.96 215.49 61.98 215.67 62.04C215.65 62.02 215.64 62 215.62 61.98C213.3 59.4 209.04 57.73 205.02 56.64C204.93 56.66 204.88 56.68 204.88 56.68C204.86 56.66 204.82 56.62 204.78 56.58C201.93 55.82 199.21 55.36 197.39 55.09C197.56 55.06 197.72 55.02 197.88 54.97L198.1 54.91L198.21 54.88C198.21 54.88 198.28 54.86 198.32 54.85L198.53 54.77C198.61 54.75 198.68 54.72 198.75 54.69L198.85 54.65C198.85 54.65 198.92 54.63 198.96 54.61L199.17 54.52L199.38 54.42L199.59 54.32L199.8 54.22L200.01 54.12L200.11 54.06L200.21 54.01L200.42 53.91L201.22 53.5C201.49 53.36 201.75 53.23 202.02 53.1L202.12 53.05C202.12 53.05 202.15 53.03 202.17 53.03L202.23 53.01L202.43 52.91C202.43 52.91 202.5 52.89 202.53 52.87L202.63 52.83C202.7 52.8 202.77 52.77 202.84 52.74C203.11 52.64 203.39 52.55 203.67 52.49C203.74 52.47 203.81 52.46 203.88 52.45C203.95 52.43 204.02 52.43 204.09 52.42C204.23 52.4 204.38 52.39 204.52 52.39C204.66 52.39 204.81 52.39 204.95 52.41C205.09 52.43 205.23 52.45 205.36 52.49C205.5 52.53 205.63 52.58 205.76 52.63C205.88 52.69 206.01 52.77 206.12 52.84C206.34 53.01 206.53 53.22 206.68 53.46C206.75 53.58 206.82 53.7 206.85 53.83C207.45 55.76 204.94 56.37 204.68 56.46C204.68 56.46 204.72 56.5 204.76 56.54C204.84 56.56 204.92 56.58 205 56.6C205.52 56.46 207.36 55.88 207.25 54.21C207.25 54.05 207.21 53.88 207.16 53.73C207.11 53.57 207.04 53.42 206.96 53.28C206.88 53.14 206.79 53 206.68 52.88C206.57 52.76 206.45 52.65 206.32 52.55C206.19 52.45 206.06 52.37 205.91 52.3C205.77 52.23 205.62 52.17 205.46 52.13C205.3 52.08 205.14 52.05 204.99 52.03C204.83 52.01 204.67 52 204.51 52C204.35 52 204.19 52 204.04 52.02C203.96 52.02 203.88 52.04 203.8 52.05C203.73 52.07 203.65 52.07 203.57 52.09C203.42 52.12 203.27 52.16 203.12 52.2C202.97 52.25 202.83 52.3 202.67 52.35C202.6 52.37 202.53 52.41 202.46 52.44L202.36 52.48C202.36 52.48 202.29 52.51 202.26 52.53L202.05 52.62L202 52.64C202 52.64 201.96 52.66 201.94 52.66L201.84 52.71C201.56 52.84 201.29 52.97 201.02 53.12C200.48 53.39 199.95 53.68 199.41 53.93L199.31 53.98L199.21 54.02L199.01 54.12L198.8 54.21L198.7 54.25L198.6 54.29C198.53 54.31 198.46 54.35 198.39 54.37L198.18 54.44C198.18 54.44 198.11 54.46 198.08 54.48L197.97 54.51L197.76 54.57C197.47 54.65 197.19 54.71 196.9 54.75C196.75 54.77 196.61 54.79 196.46 54.81H196.4H196.34H196.23H196.12H196.02C195.96 54.81 195.9 54.81 195.84 54.81C195.61 54.81 195.38 54.79 195.16 54.74C194.87 54.69 194.6 54.6 194.33 54.49C194.27 54.47 194.22 54.44 194.16 54.42C193.95 54.32 193.73 54.23 193.51 54.13C193.37 54.06 193.24 53.99 193.1 53.94C193.06 53.92 193.03 53.91 192.99 53.9L192.89 53.85L192.72 53.79C192.72 53.79 192.69 53.77 192.66 53.77L192.56 53.73C192.56 53.73 192.48 53.71 192.45 53.7L192.39 53.68C192.39 53.68 192.35 53.66 192.33 53.66L192.22 53.63C192.22 53.63 192.15 53.61 192.11 53.6L192.02 53.58H192L191.89 53.55C191.85 53.55 191.81 53.53 191.78 53.53L191.66 53.51C191.66 53.51 191.63 53.51 191.6 53.51H191.54C191.54 53.51 191.47 53.49 191.43 53.49L191.32 53.47C191.32 53.47 191.28 53.47 191.26 53.47H191.2L191.09 53.45L190.98 53.43C190.98 53.43 190.9 53.43 190.86 53.43H190.81C190.75 53.43 190.69 53.43 190.63 53.43H190.18C190.18 53.43 190.1 53.43 190.06 53.43H190H189.94C189.87 53.43 189.79 53.45 189.71 53.45H189.6L189.49 53.47C189.45 53.47 189.42 53.49 189.38 53.49L189.27 53.51C189.27 53.51 189.23 53.51 189.21 53.51H189.15C189.15 53.51 189.07 53.53 189.03 53.54C188.74 53.6 188.44 53.69 188.16 53.79C187.87 53.9 187.6 54.03 187.33 54.18L187.39 54.26Z"></path>
<path fill="#43695B" d="M215.98 62.23L215.67 62.13C215.5 62.07 215.33 62.06 215.19 62.08H215.15L215.12 62.06C214.23 61.2 212.99 60.56 212 60.1C206.01 57.29 200.01 56.48 197.13 56.1C196.31 55.99 195.72 55.91 195.42 55.83C194.42 55.56 193.5 55.04 192.6 54.55C192.23 54.34 191.84 54.13 191.46 53.93C191.39 53.89 191.32 53.85 191.25 53.82L190.99 53.78C190.99 53.78 190.97 53.78 190.95 53.78C190.93 53.78 190.91 53.78 190.9 53.78C190.62 53.75 190.33 53.74 190.01 53.75C189.7 53.75 189.4 53.78 189.13 53.83C188.8 53.88 188.52 53.95 188.27 54.03C187.96 54.12 187.69 54.23 187.44 54.35L187.37 54.21C187.62 54.07 187.89 53.94 188.21 53.81C188.5 53.7 188.8 53.62 189.09 53.55L189.27 53.52C189.27 53.52 189.31 53.52 189.34 53.52L189.43 53.5C189.43 53.5 189.5 53.5 189.52 53.49L189.65 53.47H189.77C189.85 53.45 189.93 53.45 190 53.44H190.11C190.11 53.44 190.19 53.44 190.22 53.43H190.69C190.69 53.43 190.76 53.43 190.79 53.43C190.82 53.43 190.84 53.43 190.87 53.43H190.92C190.92 53.43 191 53.43 191.04 53.43L191.33 53.46C191.33 53.46 191.37 53.46 191.41 53.47H191.51V53.48C191.54 53.48 191.57 53.48 191.61 53.49H191.67C191.67 53.49 191.7 53.5 191.71 53.51H191.73L191.85 53.54C191.88 53.54 191.92 53.56 191.96 53.56L192.18 53.61C192.18 53.61 192.22 53.62 192.25 53.63C192.26 53.63 192.28 53.64 192.29 53.64L192.4 53.67C192.4 53.67 192.46 53.68 192.48 53.69H192.52C192.52 53.69 192.6 53.72 192.64 53.73L192.73 53.77C192.73 53.77 192.78 53.78 192.8 53.79L192.96 53.84L193.07 53.89C193.07 53.89 193.12 53.9 193.15 53.92H193.18C193.32 53.98 193.46 54.05 193.6 54.13C193.8 54.22 193.99 54.31 194.19 54.4L194.42 54.5C194.71 54.62 194.97 54.7 195.24 54.74C195.46 54.79 195.68 54.81 195.91 54.81C195.98 54.81 196.04 54.81 196.09 54.81L196.53 54.79C196.66 54.77 196.81 54.76 196.95 54.74C197.22 54.7 197.5 54.64 197.8 54.56L198.12 54.46C198.12 54.46 198.15 54.45 198.17 54.44C198.18 54.44 198.2 54.44 198.21 54.42L198.42 54.35C198.42 54.35 198.49 54.32 198.52 54.31C198.56 54.3 198.59 54.28 198.63 54.27L199.04 54.11L199.44 53.93C199.78 53.77 200.12 53.6 200.45 53.43C200.65 53.33 200.85 53.22 201.05 53.12C201.34 52.97 201.61 52.83 201.87 52.71L201.97 52.66C201.97 52.66 201.99 52.66 202 52.65L202.29 52.53C202.29 52.53 202.32 52.52 202.34 52.51C202.36 52.51 202.37 52.5 202.39 52.49L202.5 52.45C202.58 52.42 202.65 52.39 202.72 52.36C202.87 52.3 203.01 52.26 203.17 52.21H203.2C203.34 52.16 203.49 52.13 203.63 52.1C203.67 52.1 203.71 52.09 203.74 52.08C203.78 52.08 203.82 52.07 203.86 52.06C203.91 52.06 203.95 52.05 203.98 52.04C204.02 52.04 204.06 52.03 204.1 52.02C204.25 52 204.41 52 204.58 52C204.77 52 204.92 52.01 205.07 52.03C205.23 52.05 205.39 52.08 205.55 52.13C205.73 52.19 205.88 52.24 206.01 52.31C206.15 52.38 206.29 52.46 206.44 52.57C206.57 52.68 206.69 52.79 206.81 52.91C206.92 53.04 207.02 53.17 207.1 53.32C207.19 53.47 207.26 53.63 207.31 53.78C207.36 53.94 207.39 54.11 207.4 54.28C207.5 55.78 206.1 56.43 205.36 56.68C210.32 58.05 213.8 59.83 215.73 61.96C215.73 61.96 215.75 61.98 215.76 61.99C215.76 61.99 215.77 62.01 215.78 62.01L216.01 62.24L215.98 62.23ZM215.31 61.91C215.36 61.91 215.41 61.91 215.47 61.92C213.51 59.83 210 58.09 205.05 56.74C205.02 56.74 204.99 56.76 204.97 56.76C204.93 56.77 204.92 56.77 204.9 56.77H204.86L204.84 56.73C204.84 56.73 204.82 56.71 204.81 56.7C204.8 56.69 204.78 56.67 204.77 56.66C201.94 55.91 199.22 55.45 197.42 55.17L196.96 55.1L197.41 55.01C197.57 54.98 197.72 54.94 197.89 54.89L198.22 54.79C198.22 54.79 198.26 54.79 198.27 54.78C198.29 54.78 198.31 54.77 198.34 54.76L198.54 54.68C198.62 54.65 198.69 54.63 198.76 54.6L198.87 54.56C198.87 54.56 198.91 54.54 198.93 54.54C198.95 54.54 198.96 54.53 198.98 54.52L200.02 54.05L200.11 54L200.42 53.85L201.44 53.33C201.64 53.23 201.83 53.13 202.03 53.04L202.13 52.99C202.13 52.99 202.16 52.97 202.18 52.97L202.25 52.95L202.44 52.86C202.44 52.86 202.48 52.85 202.49 52.84C202.51 52.84 202.52 52.83 202.54 52.82L202.7 52.76C202.76 52.73 202.81 52.71 202.87 52.69C203.17 52.57 203.45 52.49 203.71 52.44C203.78 52.42 203.86 52.41 203.93 52.4C203.99 52.39 204.06 52.38 204.13 52.37H204.16C204.44 52.34 204.72 52.33 205.02 52.37C205.18 52.39 205.32 52.41 205.45 52.45C205.59 52.49 205.73 52.54 205.86 52.6C205.97 52.66 206.11 52.74 206.23 52.82C206.46 52.99 206.66 53.21 206.81 53.46C206.88 53.57 206.95 53.7 206.99 53.85C207.14 54.34 207.11 54.8 206.9 55.2C206.6 55.77 205.93 56.22 204.93 56.53C204.94 56.53 204.95 56.53 204.96 56.53C204.99 56.53 205.03 56.55 205.06 56.56C205.62 56.41 207.33 55.83 207.23 54.25C207.23 54.1 207.19 53.94 207.15 53.79C207.11 53.65 207.04 53.51 206.96 53.36C206.88 53.22 206.79 53.09 206.69 52.97C206.58 52.86 206.46 52.75 206.34 52.65C206.2 52.55 206.08 52.47 205.94 52.41C205.81 52.35 205.68 52.29 205.5 52.24C205.35 52.2 205.2 52.16 205.05 52.15C204.91 52.13 204.76 52.12 204.58 52.12C204.42 52.12 204.27 52.12 204.12 52.14C204.08 52.14 204.04 52.14 204 52.16C203.96 52.16 203.92 52.17 203.88 52.18C203.85 52.18 203.81 52.19 203.76 52.2C203.73 52.2 203.69 52.21 203.65 52.22C203.51 52.25 203.37 52.29 203.23 52.32H203.2C203.05 52.37 202.91 52.42 202.76 52.48C202.69 52.5 202.63 52.53 202.56 52.56L202.44 52.61C202.44 52.61 202.41 52.62 202.39 52.63C202.37 52.63 202.36 52.64 202.34 52.65L202.08 52.76C202.08 52.76 202.06 52.76 202.05 52.77L201.92 52.83C201.66 52.95 201.39 53.08 201.1 53.23C200.9 53.33 200.7 53.43 200.5 53.54C200.17 53.71 199.83 53.89 199.49 54.05L198.67 54.4C198.67 54.4 198.6 54.43 198.57 54.44C198.53 54.46 198.5 54.47 198.46 54.48L198.26 54.55C198.26 54.55 198.23 54.56 198.21 54.57C198.19 54.57 198.18 54.58 198.16 54.59L197.83 54.69C197.52 54.78 197.23 54.84 196.96 54.88C196.81 54.9 196.67 54.92 196.52 54.94L196.07 54.96C196 54.96 195.95 54.96 195.88 54.96C195.65 54.96 195.42 54.94 195.2 54.89C194.93 54.85 194.65 54.76 194.35 54.64L194.12 54.54C193.92 54.45 193.73 54.37 193.53 54.27C193.39 54.19 193.25 54.13 193.12 54.08H193.09C193.09 54.08 193.05 54.05 193.02 54.04L192.9 53.99L192.74 53.94L192.71 53.93H192.68L192.58 53.88C192.55 53.87 192.52 53.86 192.49 53.85L192.42 53.83C192.42 53.83 192.39 53.82 192.38 53.82H192.36L192.25 53.79C192.23 53.79 192.21 53.78 192.19 53.77C192.18 53.77 192.16 53.76 192.15 53.76L191.93 53.71C191.93 53.71 191.85 53.69 191.82 53.69L191.7 53.67C191.7 53.67 191.69 53.67 191.68 53.67L191.58 53.65C191.58 53.65 191.53 53.64 191.5 53.64L191.38 53.62C191.38 53.62 191.35 53.62 191.33 53.62L191.04 53.59C191.04 53.59 190.96 53.59 190.92 53.59H190.89C190.89 53.59 190.83 53.59 190.8 53.59C190.77 53.59 190.74 53.59 190.71 53.59H190.26C190.26 53.59 190.18 53.59 190.14 53.59H190.03C190.03 53.59 190.03 53.59 190.02 53.59C190.02 53.59 190.03 53.59 190.04 53.59C190.36 53.59 190.66 53.59 190.94 53.62C190.94 53.62 190.98 53.62 191 53.62C191.01 53.62 191.03 53.62 191.04 53.62L191.36 53.67C191.43 53.71 191.5 53.75 191.58 53.79C191.96 53.98 192.35 54.2 192.73 54.41C193.62 54.9 194.53 55.41 195.51 55.68C195.81 55.76 196.39 55.84 197.2 55.95C200.09 56.34 206.11 57.14 212.12 59.97C213.11 60.43 214.35 61.07 215.26 61.94C215.29 61.94 215.33 61.94 215.36 61.94L215.31 61.91ZM197.83 55.09C199.59 55.37 202.06 55.8 204.64 56.47L204.7 56.44C204.7 56.44 204.74 56.43 204.78 56.42C205.79 56.12 206.45 55.69 206.74 55.13C206.93 54.77 206.96 54.36 206.82 53.9C206.78 53.77 206.72 53.65 206.65 53.54C206.51 53.31 206.32 53.1 206.11 52.94C206 52.86 205.87 52.79 205.76 52.73C205.65 52.68 205.51 52.63 205.38 52.59C205.26 52.55 205.13 52.53 204.98 52.51C204.7 52.48 204.44 52.49 204.15 52.51L204.11 52.43V52.51C204.05 52.51 203.99 52.52 203.92 52.54C203.84 52.54 203.77 52.56 203.71 52.58C203.45 52.63 203.18 52.71 202.89 52.82C202.83 52.84 202.79 52.86 202.74 52.88L202.58 52.94C202.58 52.94 202.54 52.96 202.52 52.96C202.51 52.96 202.49 52.96 202.48 52.97L202.29 53.06L202.22 53.08C202.22 53.08 202.2 53.09 202.19 53.1L202.08 53.15C201.88 53.24 201.69 53.34 201.49 53.44L199.44 54.46L199.02 54.64C199.02 54.64 198.98 54.66 198.96 54.66C198.94 54.66 198.93 54.67 198.91 54.68L198.81 54.72C198.74 54.75 198.67 54.78 198.58 54.8L198.37 54.88C198.37 54.88 198.33 54.89 198.31 54.9C198.29 54.9 198.27 54.91 198.24 54.92L197.91 55.01C197.91 55.01 197.85 55.03 197.82 55.04L197.83 55.09ZM189.28 53.58V53.62C189.28 53.62 189.3 53.62 189.31 53.62L189.28 53.58Z"></path>
<path fill="#43695B" d="M185.47 130.35C184.94 131.08 184.73 131.98 184.33 132.78C183.92 133.57 183.08 134.51 182.18 134.72C181.53 134.86 180.86 134.24 180.79 133.62C180.71 132.76 181.61 132.2 182.27 131.82C183.24 131.26 184.83 131.03 185.61 130.19C185.56 130.24 185.51 130.3 185.47 130.36V130.35Z"></path>
<path fill="#43695B" d="M185.52 130.35C186.05 131.08 186.26 131.98 186.67 132.78C187.07 133.57 187.92 134.51 188.82 134.72C189.47 134.86 190.14 134.24 190.21 133.62C190.3 132.76 189.39 132.2 188.73 131.82C187.76 131.26 186.17 131.03 185.39 130.19C185.44 130.24 185.48 130.3 185.53 130.36L185.52 130.35Z"></path>
<path fill="#43695B" d="M185.51 130.25C185.51 130.25 185.51 130.27 185.51 130.31C194.68 131 195.42 123.26 202.99 123.07C193.43 120.21 194.5 130.23 185.51 130.25Z"></path>
<path fill="#43695B" d="M185.5 130.25C185.5 130.25 185.5 130.27 185.5 130.31C176.33 131 175.59 123.26 168.02 123.07C177.58 120.21 176.51 130.23 185.5 130.25Z"></path>
<path fill="#43695B" d="M200.97 99.22C200.99 100.17 200.93 101.1 200.88 102.01V102.03C200.38 104.97 199.05 107.41 196.86 109.31C194.19 111.62 190.7 113.2 186.4 113.03C179.49 112.78 174.89 109.09 172.2 107.31V100.06H172.26C174.49 106.13 179.95 110.34 185.58 110.34C194.08 110.34 196.1 105.61 196.26 102.79C196.35 100.53 195.62 98.31 194.14 96.72C192.67 95.15 189.94 93.42 185.95 91.54C182.4 89.84 179.73 88.38 177.94 87.13C176.15 85.9 174.78 84.32 173.82 82.42C172.89 80.57 172.45 78.62 172.51 76.58C172.54 76.75 172.57 76.92 172.61 77.09C174.49 85.43 183.33 89 190.22 92.43C192.97 93.81 195.79 95.07 198.08 97.07C198.97 97.94 199.64 98.91 200.16 100.04C200.14 98.87 200.03 97.74 199.63 96.72C199.04 95.11 197.48 94.1 195.97 93.12C194.44 92.15 192.81 91.31 191.17 90.49C186.98 88.54 182.82 86.36 179.08 83.62C176.75 81.97 174.89 79.63 173.78 77.02C172.91 75.37 172.95 73.28 173.55 71.55C173.55 71.53 173.55 71.51 173.53 71.49C174.14 70.15 175.03 68.97 176.2 67.94C178.51 65.89 181.37 65.07 184.79 65.07C189.55 65.07 194.86 67.45 197.49 68.42C197.49 70.1 197.49 73.29 197.49 75.07H197.4C196.06 71.6 191.54 67.59 184.69 67.59C177.84 67.59 177.12 71.57 177.06 73.29C176.97 75.37 177.69 77.17 179.21 78.67C180.7 80.2 183.44 81.95 187.42 83.93C191.23 85.81 194 87.32 195.72 88.44C197.44 89.56 198.79 91.08 199.78 92.98C199.85 93.12 199.91 93.26 199.98 93.4C194.99 87.02 183.83 84.79 178.11 79.72C176.22 77.97 174.79 75.66 173.98 73.15C173.83 74.33 173.98 75.5 174.61 76.64C175.72 79.11 177.45 81.24 179.68 82.76C181.93 84.33 184.26 85.81 186.69 87.08C189.94 88.73 193.37 90.22 196.53 92.23C199.23 93.86 201.06 95.93 200.97 99.24V99.22Z"></path>
<path fill="#43695B" d="M195.16 117.45C195.95 116.65 186.44 125.23 175.52 117.14C176.97 119.77 183.05 123.59 185.57 124.67C189.89 123.02 192.92 119.71 195.16 117.45Z"></path>
<path fill="#43695B" d="M185.47 125.53C163.41 114.78 156.07 88.13 156.96 65.28C162.05 65.13 166.91 63.52 171.4 61.14C175.76 58.83 180.46 56.62 185.53 56.79C190.6 56.63 195.3 58.83 199.66 61.14C204.15 63.51 209.01 65.12 214.1 65.28C214.97 88.26 207.67 114.72 185.48 125.53H185.47ZM185.47 124.2C206.71 112.99 213.73 88.33 213.12 65.75L213.58 66.23C208.54 65.85 203.75 64 199.41 61.63C195.11 59.25 190.54 57.1 185.53 57.21C180.51 57.11 175.95 59.25 171.65 61.64C167.31 64.01 162.52 65.86 157.48 66.24L157.94 65.75C157.32 88.2 164.35 113.04 185.47 124.2Z"></path>
<path fill="#43695B" d="M209.22 65.45C209.22 65.45 213 66.07 213.2 70.45C213.18 67.28 213.2 65.76 213.2 65.76L209.22 65.45Z"></path>
<path fill="#43695B" d="M161.8 65.55C161.8 65.55 158.02 66.17 157.82 70.55C157.84 67.38 157.82 65.86 157.82 65.86L161.8 65.55Z"></path>
<path fill="#43695B" d="M60.0495 190.05C57.6895 193 53.6895 194.71 48.0495 194.71C43.7195 194.71 39.7195 193.33 36.7695 191.3V181.33C39.0595 188.61 43.3895 191.36 48.8295 191.36C53.2195 191.36 57.5495 189 57.5495 184.02C57.5495 178.58 53.5495 176.28 47.1295 172.81C42.1495 170.06 37.2995 167.04 37.2995 160.48C37.2995 153.33 43.5895 148.94 50.6695 148.94C54.3395 148.94 58.0795 150.25 60.1095 151.89V160.54C58.3395 154.57 54.4095 152.21 49.8795 152.21C44.8995 152.21 41.8795 155.68 41.8795 159.36C41.8795 163.82 45.6795 166.11 51.6495 169.32C56.9595 172.21 62.4695 175.42 62.4695 182.89C62.4695 185.45 61.6795 188 60.0395 190.04L60.0495 190.05Z"></path>
<path fill="#43695B" d="M81.7697 193.57H70.5597C71.0797 193.5 73.5097 192.91 73.5097 187.67V155.87C73.5097 150.69 70.9497 150.04 70.4297 149.9H81.7697C81.3797 149.97 78.7497 150.56 78.7497 155.87V187.67C78.7497 192.78 81.1797 193.5 81.7697 193.57Z"></path>
<path fill="#43695B" d="M138.53 193.57H127.65C128.31 193.44 130.47 192.72 130.47 187.47V156.79L113.95 194.36L97.4296 156.79V187.08C97.4296 192.52 100.05 193.44 100.77 193.57H90.3496C91.0096 193.44 93.8196 192.72 93.8196 187.08V155.74C93.8196 150.69 91.0696 150.04 90.4796 149.91H99.9896L115 183.87L129.75 149.91H138.6C138.01 150.04 135.65 150.76 135.65 155.88V187.48C135.65 192.53 137.81 193.45 138.53 193.58V193.57Z"></path>
<path fill="#43695B" d="M195.47 193.57H184.59C185.25 193.44 187.41 192.72 187.41 187.47V156.79L170.89 194.36L154.37 156.79V187.08C154.37 192.52 156.99 193.44 157.71 193.57H147.29C147.95 193.44 150.76 192.72 150.76 187.08V155.74C150.76 150.69 148.01 150.04 147.42 149.91H156.93L171.94 183.87L186.69 149.91H195.54C194.95 150.04 192.59 150.76 192.59 155.88V187.48C192.59 192.53 194.75 193.45 195.47 193.58V193.57Z"></path>
<path fill="#43695B" d="M223.38 194.55C210.99 194.55 202.79 184.98 202.79 172.13C202.79 159.28 211.71 148.79 224.56 148.79C237.41 148.79 245.01 158.36 245.01 171.21C245.01 184.06 236.42 194.55 223.38 194.55ZM223.25 152.4C214.33 152.4 208.17 159.55 208.17 170.23C208.17 182.29 214.73 190.95 224.69 190.95C233.61 190.95 239.77 183.54 239.77 172.72C239.77 161.05 233.41 152.4 223.25 152.4Z"></path>
<path fill="#43695B" d="M281.74 149.9H292.1C291.64 149.97 288.82 150.62 288.82 156V195.47L259.06 158.69V187.54C259.06 192.78 261.94 193.51 262.53 193.57H251.98C252.44 193.5 255.26 192.98 255.26 187.54V156.66C255.26 152.27 251.85 150.56 250.28 149.91H258.8L285.09 182.49V156C285.09 150.76 282.34 150.03 281.75 149.9H281.74Z"></path>
<path fill="#43695B" d="M325.34 189.9C322.98 192.85 318.98 194.56 313.34 194.56C309.01 194.56 305.01 193.18 302.06 191.15V181.18C304.36 188.46 308.68 191.21 314.12 191.21C318.51 191.21 322.84 188.85 322.84 183.87C322.84 178.43 318.84 176.13 312.42 172.66C307.44 169.91 302.59 166.89 302.59 160.33C302.59 153.18 308.88 148.79 315.96 148.79C319.63 148.79 323.37 150.1 325.4 151.74V160.39C323.63 154.42 319.7 152.06 315.17 152.06C310.19 152.06 307.17 155.53 307.17 159.21C307.17 163.67 310.97 165.96 316.94 169.17C322.25 172.06 327.76 175.27 327.76 182.74C327.76 185.3 326.97 187.85 325.33 189.89L325.34 189.9Z"></path>
<path fill="#43695B" d="M333.2 194.44C331.91 194.44 330.61 193.57 330.61 191.82C330.61 190.07 331.9 189.2 333.2 189.2C334.5 189.2 335.77 190.07 335.77 191.82C335.77 193.57 334.48 194.44 333.2 194.44ZM333.2 189.51C332.08 189.51 330.96 190.29 330.96 191.82C330.96 193.35 332.09 194.15 333.2 194.15C334.31 194.15 335.42 193.37 335.42 191.83C335.42 190.29 334.31 189.51 333.2 189.51ZM333.77 193.45L333.35 192.52C333.21 192.2 333.09 192.11 332.93 192.11H332.81V192.9C332.81 193.35 332.97 193.41 332.99 193.45H332.13C332.13 193.45 332.31 193.34 332.31 192.9V190.67C332.31 190.23 332.13 190.15 332.1 190.11H333.26C333.92 190.11 334.24 190.59 334.24 191.06C334.24 191.5 333.97 191.94 333.5 191.98C333.6 192.02 333.72 192.14 333.85 192.42L334.14 193.04C334.27 193.31 334.42 193.41 334.47 193.44H333.76L333.77 193.45ZM333.2 190.52H332.81V191.73H333.21C333.55 191.73 333.76 191.46 333.76 191.12C333.76 190.81 333.56 190.52 333.2 190.52Z"></path>
</svg>
