<svg xmlns="http://www.w3.org/2000/svg" width="237.567" height="75.441" viewBox="0 0 237.567 75.441"><defs><style>.a{fill:#063044;}</style></defs><g transform="translate(-50.502 -60.038)"><path class="a" d="M557.356,139.09v.587H558.6V143h.672v-3.323h1.25v-.587Z" transform="translate(-276.942 -43.194)"/><path class="a" d="M568.4,139.09l-1.044,3.054h-.019l-1.073-3.054h-.957V143h.649v-3.013h.012l1.08,3.013h.558l1.084-3.013h.007V143h.657v-3.91Z" transform="translate(-281.288 -43.194)"/><path class="a" d="M51.328,206.979l-.826,1.584h76.875a6.963,6.963,0,0,1,.2-1.584Z" transform="translate(0 -80.288)"/><path class="a" d="M242.326,206.979a3.53,3.53,0,0,0,.316,1.584h7.465a9.708,9.708,0,0,0,1.308-1.584Z" transform="translate(-104.811 -80.288)"/><g transform="translate(217.446 116.477)"><path class="a" d="M421.567,186.455c-.756.4-2.442,1.484-2.442,1.484a.385.385,0,0,0-.038.43c.132.249.575.052.575.052s2.385-1.207,2.8-.825-.057,2.063-.2,3.246-1.231,8.65-1.231,8.65-.3,1.653.836,2.167,3.343-.8,4.39-1.763,3.031-2.878,3.031-2.878a.514.514,0,0,0-.076-.6c-.275-.277-.567.024-.718.147s-2.445,2.6-3.864,2.351c-.628-.09-.545-.966-.418-2.013s1.457-9.841,1.457-9.841.394-1.5-.518-1.993a.8.8,0,0,0-.426-.1c-.987,0-2.515,1.159-3.154,1.494" transform="translate(-418.813 -184.734)"/><path class="a" d="M422.18,201.724a1.656,1.656,0,0,1-.682-.132c-1.28-.581-.98-2.339-.966-2.414s1.085-7.486,1.229-8.638c.039-.321.1-.677.167-1.034.13-.723.325-1.816.106-2.018a6.019,6.019,0,0,0-2.541.861c-.327.146-.718.154-.878-.148a.61.61,0,0,1,.071-.689l.044-.038c.069-.044,1.7-1.1,2.46-1.494h0c.153-.08.359-.209.6-.358a6.194,6.194,0,0,1,2.664-1.161,1.016,1.016,0,0,1,.544.137c1.047.561.638,2.175.62,2.244s-1.326,8.791-1.451,9.811c-.121.994-.176,1.7.225,1.76.44.079,1.487-.105,3.574-2.192l.108-.106.046-.039c.145-.123.583-.5.981-.1a.738.738,0,0,1,.111.877l-.038.049c-.02.019-1.985,1.931-3.036,2.884A7.141,7.141,0,0,1,422.18,201.724Zm-.268-14.7a.622.622,0,0,1,.429.127c.4.372.23,1.326.032,2.431-.063.349-.125.7-.163,1.01-.145,1.157-1.221,8.58-1.231,8.655,0,.022-.252,1.494.705,1.928.988.441,3.076-.738,4.143-1.722.979-.887,2.757-2.612,3-2.848a.274.274,0,0,0-.053-.308c-.062-.063-.113-.091-.363.123l-.048.041-.08.08c-1.7,1.7-3.04,2.481-3.967,2.318-.864-.123-.725-1.26-.6-2.263.126-1.027,1.4-9.488,1.458-9.848.008-.037.342-1.36-.4-1.759-.559-.337-1.913.5-2.742,1.015-.249.156-.465.291-.625.376h0c-.679.355-2.147,1.3-2.39,1.451a.167.167,0,0,0,.008.159.56.56,0,0,0,.281-.053A7.62,7.62,0,0,1,421.912,187.028Z" transform="translate(-418.54 -184.461)"/></g><g transform="translate(191.837 116.462)"><path class="a" d="M373.974,185.217a8.288,8.288,0,0,0-2.374-.288c-1.983,0-4.665.5-6.176,2.681a18.466,18.466,0,0,0-2.841,8.867c0,4.58,2.5,5.183,3.626,5.286a7.992,7.992,0,0,0,8.208-3.948C377.188,193.24,376.765,186.663,373.974,185.217ZM372,197.287c-1.206,2.789-2.628,3.448-3.675,3.448a2.651,2.651,0,0,1-1.357-.386c-1.549-1.4-1-5.116-1.023-5.9.237-5.286,2.865-7.68,2.865-7.68,1.763-1.446,2.679-.5,3.214-.132C374.5,189.269,372.925,195.082,372,197.287Z" transform="translate(-362.356 -184.702)"/><path class="a" d="M367.1,201.777q-.537,0-1.1-.054l-.083-.008c-1.431-.132-3.832-1.022-3.832-5.512a18.476,18.476,0,0,1,2.879-8.992c1.681-2.421,4.709-2.782,6.365-2.782a8.515,8.515,0,0,1,2.454.3l.025.011a4.584,4.584,0,0,1,2.072,2.989,13.418,13.418,0,0,1-1.54,9.929A7.989,7.989,0,0,1,367.1,201.777Zm4.228-16.895c-1.567,0-4.43.336-5.99,2.583-.025.038-2.8,4.283-2.8,8.738,0,3.1,1.182,4.855,3.42,5.06l.084.008a7.728,7.728,0,0,0,7.909-3.848,12.914,12.914,0,0,0,1.491-9.571,4.167,4.167,0,0,0-1.832-2.7A8.265,8.265,0,0,0,371.327,184.883Zm-3.27,15.807a2.871,2.871,0,0,1-1.476-.42c-1.4-1.261-1.234-4.105-1.155-5.472.016-.27.029-.483.025-.612.239-5.337,2.829-7.754,2.939-7.855,1.751-1.435,2.789-.669,3.347-.258.053.039.1.075.148.107l.037.032c2.592,2.761.893,8.8.019,10.891v0C370.658,200.068,369.121,200.689,368.057,200.689Zm2.233-14.744a2.6,2.6,0,0,0-1.6.728c-.017.015-2.553,2.4-2.783,7.514,0,.121-.008.348-.024.636-.075,1.3-.23,3.994.973,5.085a2.442,2.442,0,0,0,1.2.327c.929,0,2.283-.574,3.466-3.31.841-2.015,2.488-7.794.084-10.388-.044-.03-.09-.064-.14-.1A1.951,1.951,0,0,0,370.29,185.945Z" transform="translate(-362.083 -184.429)"/></g><g transform="translate(229.587 116.462)"><path class="a" d="M457.19,185.217a8.24,8.24,0,0,0-2.369-.288c-1.981,0-4.666.5-6.179,2.681a18.487,18.487,0,0,0-2.836,8.867c0,4.58,2.493,5.183,3.634,5.286a7.991,7.991,0,0,0,8.205-3.948C460.4,193.24,459.98,186.663,457.19,185.217Zm-1.975,12.071c-1.2,2.789-2.62,3.448-3.659,3.448a2.6,2.6,0,0,1-1.357-.386c-1.556-1.4-1-5.116-1.033-5.9.245-5.286,2.874-7.68,2.874-7.68,1.759-1.446,2.677-.5,3.205-.132C457.721,189.269,456.138,195.082,455.215,197.287Z" transform="translate(-445.579 -184.702)"/><path class="a" d="M450.328,201.777q-.535,0-1.1-.054l-.083-.008c-1.752-.159-3.84-1.243-3.84-5.512a18.5,18.5,0,0,1,2.873-8.992c1.684-2.421,4.712-2.782,6.369-2.782a8.4,8.4,0,0,1,2.449.3l.024.01a4.574,4.574,0,0,1,2.068,2.977,13.458,13.458,0,0,1-1.522,9.941A8,8,0,0,1,450.328,201.777Zm4.219-16.895c-1.568,0-4.43.336-5.993,2.583-.025.038-2.8,4.283-2.8,8.738,0,3.108,1.185,4.858,3.428,5.06l.085.008a7.688,7.688,0,0,0,7.905-3.848,12.955,12.955,0,0,0,1.474-9.583,4.155,4.155,0,0,0-1.828-2.69A8.137,8.137,0,0,0,454.548,184.883Zm-3.265,15.807a2.8,2.8,0,0,1-1.479-.422c-1.4-1.253-1.237-4.089-1.161-5.452.015-.281.028-.5.023-.63.247-5.338,2.838-7.755,2.948-7.856,1.75-1.438,2.787-.668,3.344-.254.051.038.1.073.143.1l.036.031c2.6,2.758.891,8.8.015,10.892v0C453.88,200.068,452.346,200.689,451.282,200.689Zm2.228-14.738a2.584,2.584,0,0,0-1.6.722c-.016.015-2.553,2.4-2.791,7.515.006.128-.007.36-.024.653-.072,1.292-.222,3.981.982,5.067a2.422,2.422,0,0,0,1.205.328c.927,0,2.278-.574,3.45-3.31.843-2.015,2.5-7.8.089-10.388-.043-.03-.087-.064-.135-.1A1.933,1.933,0,0,0,453.51,185.952Z" transform="translate(-445.306 -184.429)"/></g><g transform="translate(245.625 116.27)"><path class="a" d="M486.063,184.636c-.815.5-4.792,2.694-4.792,2.694s-.208.312-.046.5.523.075.791-.108c0,0,1.413-.919,1.81-.575s.413.414.311,1.48c-.106,1.046-1.655,12.989-1.655,12.989l3.02-1.475,1.584-11.514s3.235-3.194,4.681-2.767,1.74,1.23,1.551,2.865-1.578,11.938-1.578,11.938-.208,2.187,2.111.952a43.21,43.21,0,0,0,6.049-4.632.356.356,0,0,0-.057-.574c-.367-.3-.84.31-.84.31s-2.874,2.657-3.637,2.337-.5-1.413-.281-2.52,1.1-7.811,1.1-7.811.264-2.681-1.446-3.737-4.573.259-5.572,1.056-2.056,1.47-2.056,1.47l.081-2.375s-.2-.632-.7-.632a.869.869,0,0,0-.429.132" transform="translate(-480.936 -184.277)"/><path class="a" d="M492.38,201.942a1.082,1.082,0,0,1-.615-.172,1.641,1.641,0,0,1-.526-1.4c.015-.112,1.4-10.329,1.579-11.942.191-1.644-.134-2.256-1.389-2.622-1.059-.314-3.484,1.761-4.4,2.656l-1.589,11.557-3.507,1.713.054-.418c.015-.119,1.55-11.952,1.654-12.982.1-1,.083-1.009-.234-1.286-.136-.118-.885.169-1.538.594-.366.251-.849.368-1.093.058a.654.654,0,0,1,.036-.762l.031-.046.049-.026c.039-.022,3.981-2.2,4.782-2.689l.006,0a1.088,1.088,0,0,1,.542-.161c.657,0,.907.757.918.789l.012.038-.068,1.974c.393-.265,1.047-.72,1.674-1.216,1.114-.889,4.065-2.16,5.831-1.071,1.811,1.118,1.565,3.837,1.553,3.952-.038.282-.9,6.735-1.1,7.831l-.028.139c-.228,1.149-.339,1.918.172,2.129.385.158,2.061-1.059,3.4-2.293a1.22,1.22,0,0,1,.7-.45.567.567,0,0,1,.439.132.611.611,0,0,1,.262.458.631.631,0,0,1-.2.458,42.592,42.592,0,0,1-6.1,4.665A2.888,2.888,0,0,1,492.38,201.942Zm-1.171-16.624a1.23,1.23,0,0,1,.348.048c1.676.488,1.9,1.51,1.712,3.109-.181,1.618-1.565,11.84-1.579,11.943-.017.192.006.762.328.976.284.19.786.1,1.451-.255a43.191,43.191,0,0,0,6-4.6.178.178,0,0,0,.048-.105c0-.046-.059-.1-.092-.122a.127.127,0,0,0-.1-.035.859.859,0,0,0-.416.3c-.725.675-3.073,2.759-3.9,2.407-.893-.368-.664-1.521-.442-2.636l.027-.137c.2-1.082,1.089-7.73,1.1-7.8,0-.017.228-2.546-1.34-3.514-1.61-.994-4.414.324-5.311,1.04-1,.789-2.064,1.477-2.074,1.484l-.364.235.094-2.763c-.043-.107-.2-.442-.474-.442a.655.655,0,0,0-.314.1c-.774.474-4.243,2.391-4.742,2.667-.038.076-.056.16-.04.178.03.039.238.029.492-.145.37-.241,1.6-.982,2.087-.56s.491.6.388,1.673c-.095.939-1.322,10.423-1.6,12.578l2.532-1.237,1.578-11.47.055-.054C486.969,187.875,489.609,185.318,491.209,185.318Z" transform="translate(-480.662 -184.004)"/></g><path class="a" d="M69,173l-.823,1.584h96.313c.2-.324.3-.514.313-.532.084-.156.292-.524.578-1.052Z" transform="translate(-9.66 -61.719)"/><g transform="translate(219.562 106.564)"><path class="a" d="M425.076,163.531a2.127,2.127,0,1,0,3.254.5,2,2,0,0,0-1.775-.924,2.941,2.941,0,0,0-1.479.424" transform="translate(-423.477 -162.88)"/><path class="a" d="M425.449,167.494a2.632,2.632,0,0,1-.66-.083,2.04,2.04,0,0,1-1.511-2.55,3.008,3.008,0,0,1,1.411-1.8h0a3.17,3.17,0,0,1,1.593-.455,2.232,2.232,0,0,1,1.971,1.036,2.1,2.1,0,0,1,.2,1.609,3,3,0,0,1-1.419,1.794A3.134,3.134,0,0,1,425.449,167.494Zm-.531-4.04a2.551,2.551,0,0,0-1.2,1.52,1.611,1.611,0,0,0,.154,1.25,1.628,1.628,0,0,0,1.031.749,2.7,2.7,0,0,0,3.114-1.834,1.627,1.627,0,0,0-.153-1.264,1.786,1.786,0,0,0-1.581-.813,2.71,2.71,0,0,0-1.364.393Z" transform="translate(-423.205 -162.607)"/></g><g transform="translate(207.207 105.188)"><path class="a" d="M400.681,163.246,399.6,172l-2.72-.01a.525.525,0,0,0-.41.49c-.019.418.118.475.41.475s2.526-.009,2.526-.009l-1.972,13.55s-.238,1.659.969,2.073,2.479-.5,3.168-1.074,4.1-3.732,4.1-3.732.308-.367-.046-.622-.6.029-.885.24-2.329,2.05-2.653,2.3c-.183.151-1.368.781-1.306-.684s1.433-11.995,1.433-11.995l-.005-.07h2.684s.486-.188.421-.571-.246-.367-.562-.367h-2.374l1.419-11.247Z" transform="translate(-396.24 -160.211)"/><path class="a" d="M398.777,188.264a2.176,2.176,0,0,1-.725-.122c-1.366-.469-1.129-2.244-1.118-2.32l1.935-13.289-2.263.008a.638.638,0,0,1-.491-.156.739.739,0,0,1-.145-.555.747.747,0,0,1,.591-.7l.046,0,2.519.009,1.068-8.641,3.626-2.916-1.457,11.548h2.168c.284,0,.638,0,.734.555a.8.8,0,0,1-.562.821l-.082.016h-2.475c-.176,1.376-1.359,10.5-1.411,11.847-.009.213,0,.585.2.681.219.111.64-.1.737-.182.166-.126.807-.689,1.372-1.187.585-.515,1.138-1,1.288-1.114l.107-.083a.805.805,0,0,1,1.042-.163.6.6,0,0,1,.264.416.768.768,0,0,1-.172.539c-.16.15-3.45,3.182-4.129,3.759A4.569,4.569,0,0,1,398.777,188.264Zm.616-16.186-2.01,13.81c0,.014-.195,1.478.817,1.826.812.286,1.775-.053,2.949-1.033.67-.569,4.059-3.693,4.093-3.724a.337.337,0,0,0,.05-.171c0-.013-.007-.052-.074-.1-.151-.1-.235-.062-.5.149l-.116.089c-.136.1-.708.606-1.26,1.092-.627.551-1.219,1.072-1.391,1.2a1.322,1.322,0,0,1-1.22.232c-.323-.161-.474-.533-.45-1.106.057-1.467,1.379-11.585,1.435-12.015l-.006-.025-.017-.242h2.878c.079-.039.273-.153.247-.306-.031-.179-.031-.185-.285-.178h-2.684l1.381-10.945-2.607,2.1-1.1,8.858-2.892-.01a.288.288,0,0,0-.211.273c-.009.182.02.223.02.224a.458.458,0,0,0,.162.015c.3,0,2.525-.009,2.525-.009Z" transform="translate(-395.967 -159.574)"/></g><path class="a" d="M77.826,156.014l-.817,1.579h74.772a5.764,5.764,0,0,1-.186-1.574l.009,0Z" transform="translate(-14.483 -52.441)"/><path class="a" d="M268.422,156.014a14.664,14.664,0,0,0-3.579,1.579h11.4c.34-.584.65-1.126.9-1.579Z" transform="translate(-117.115 -52.441)"/><g transform="translate(131.231 99.634)"><path class="a" d="M246.31,148.108c-2.941.292-7.4.123-7.6,3.524-.078,1.243.793,3.138,2,5.032.195.235.68.442.453-.358,0,0-1.29-2.478-.272-3.525s3.316-3.011,8.489-3.486,9.768-.871,11.2-.631c1.452.236,2.14,1.5,1.514,2.469-.645.976-5.531,9.846-5.531,9.846s-6.422,11.251-7.995,13.568-3.213,5.31-10.6,5.31-7.415-4.942-6.762-6.675a18.481,18.481,0,0,1,2.4-3.5.47.47,0,0,0-.016-.632c-.084-.074-.343-.14-.724.171s-4.3,4.089-3.858,7.6,2.332,6.393,8.737,6.393a13.162,13.162,0,0,0,11.308-6.054c1.363-2.152,5.343-9.607,6-10.818s7.315-13.059,7.315-13.059.181-.094.143.358.847,13.8.847,13.8l.828,14.558s.181-.015.351-.386,6.751-13,6.751-13l7.5-14.186s.254-.335.191.259-1.182,15.548-1.182,15.548-.527,7.9-.254,9.865,2.957,2.44,4.932.607a17.8,17.8,0,0,0,4.875-6.8.666.666,0,0,0-.253-.866c-.227-.108-.518.07-.772.514-.259.428-1.853,4.588-4.287,4.749-.642.023-1.476-.142-1.292-3.271s1.1-16.414,1.181-18.039.346-7.868.346-7.868.019-.871-.688-1.022-1.357,1.1-1.514,1.339-3.284,6.19-3.284,6.19l-5.515,9.96-4.1,7.7s-.3.32-.334-.18-.713-10.685-.713-10.685l-.65-13.031s-.1-1.569-2.332-1.569H261.99c-3.705,0-13.089.01-15.68.278" transform="translate(-228.746 -147.603)"/><path class="a" d="M237.471,183.175c-5.558,0-8.405-2.1-8.961-6.592-.439-3.53,3.356-7.356,3.944-7.811.489-.4.867-.29,1.012-.161a.7.7,0,0,1,.044.942,18.371,18.371,0,0,0-2.364,3.441,4.686,4.686,0,0,0,.519,4.054c1.06,1.533,3.09,2.31,6.032,2.31,6.9,0,8.641-2.582,10.176-4.86l.238-.352c1.55-2.283,7.921-13.44,7.985-13.553.2-.359,4.9-8.887,5.539-9.859a1.161,1.161,0,0,0,.087-1.132,1.855,1.855,0,0,0-1.448-.988c-1.47-.244-6.61.221-11.146.634-3.7.339-6.506,1.489-8.345,3.416-.743.764-.028,2.615.31,3.264l.017.043c.045.16.183.647-.14.817-.255.135-.562-.078-.706-.252-1-1.559-2.147-3.7-2.054-5.19.186-3.162,3.75-3.426,6.614-3.638.414-.03.815-.06,1.191-.1,1.787-.186,7.069-.279,15.7-.279h1.144c2.42,0,2.557,1.764,2.558,1.782l.65,13.033c.007.1.63,9.6.707,10.608l4.018-7.536,5.517-9.963c.318-.606,3.133-5.969,3.294-6.208.016-.024.039-.063.069-.112.269-.448.9-1.5,1.683-1.32a1.209,1.209,0,0,1,.864,1.248c0,.005-.27,6.258-.346,7.873-.036.76-.263,4.114-.5,7.664-.276,4.08-.588,8.7-.679,10.378-.088,1.507.053,2.461.419,2.835a.757.757,0,0,0,.639.2c1.966-.13,3.432-3.24,3.914-4.261.087-.185.151-.318.188-.379.462-.808.93-.664,1.063-.6a.882.882,0,0,1,.369,1.15,17.948,17.948,0,0,1-4.933,6.89,3.909,3.909,0,0,1-3.837,1.046,2.17,2.17,0,0,1-1.474-1.787c-.273-1.97.23-9.588.252-9.912.042-.564.961-12.776,1.151-15.169l-7.23,13.668c-.065.125-6.572,12.631-6.747,13-.207.455-.464.508-.538.514l-.231.018-.841-14.79c-.084-1.269-.776-11.726-.843-13.571-1.268,2.256-6.475,11.522-7.036,12.564l-.4.744c-1.207,2.243-4.411,8.2-5.6,10.086A13.323,13.323,0,0,1,237.471,183.175Zm-4.325-14.245a.72.72,0,0,0-.41.2c-.538.417-4.184,4.129-3.777,7.4.329,2.659,1.569,6.194,8.511,6.194a12.873,12.873,0,0,0,11.117-5.949c1.185-1.87,4.384-7.819,5.589-10.058l.4-.745c.639-1.184,7.25-12.944,7.317-13.062l.033-.059.059-.031a.311.311,0,0,1,.31.017c.179.119.18.377.164.561-.023.364.494,8.435.848,13.771l.8,13.994c.622-1.222,6.449-12.42,6.707-12.915l7.5-14.187c.139-.188.293-.249.43-.2.239.094.2.425.187.584-.055.582-1.17,15.392-1.181,15.541-.005.077-.522,7.893-.255,9.818a1.709,1.709,0,0,0,1.178,1.422,3.455,3.455,0,0,0,3.376-.95,17.544,17.544,0,0,0,4.822-6.728.444.444,0,0,0-.134-.567c-.1-.045-.3.088-.486.418-.035.059-.091.178-.168.342-.564,1.2-2.063,4.373-4.3,4.521a1.221,1.221,0,0,1-.986-.332c-.473-.483-.646-1.493-.547-3.178s.4-6.3.679-10.382c.24-3.549.466-6.9.5-7.655.076-1.615.345-7.866.345-7.866,0-.022,0-.681-.508-.79-.463-.106-1.017.81-1.2,1.11-.034.056-.061.1-.081.131-.125.19-2.025,3.793-3.272,6.17l-5.517,9.965-4.138,7.744a.463.463,0,0,1-.462.152c-.158-.057-.247-.216-.264-.473-.042-.481-.685-10.268-.713-10.685l-.65-13.034c0-.051-.125-1.354-2.105-1.354h-1.144c-8.618,0-13.886.093-15.656.277h0c-.38.037-.784.068-1.2.1-2.828.21-6.033.447-6.2,3.213-.067,1.066.632,2.805,1.967,4.9a.384.384,0,0,0,.093.074,1.176,1.176,0,0,0-.043-.228c-.138-.271-1.3-2.657-.223-3.765,1.916-2.007,4.82-3.2,8.631-3.553,5.7-.518,9.844-.868,11.261-.63a2.3,2.3,0,0,1,1.789,1.252,1.621,1.621,0,0,1-.122,1.564c-.634.959-5.475,9.744-5.524,9.833-.065.115-6.446,11.288-8.005,13.586l-.237.349c-1.519,2.254-3.411,5.06-10.552,5.06-3.1,0-5.255-.843-6.406-2.505a5.087,5.087,0,0,1-.568-4.477,18.63,18.63,0,0,1,2.449-3.579A.236.236,0,0,0,233.146,168.93Zm7.574-12.5Z" transform="translate(-228.474 -147.33)"/></g><g transform="translate(194.669 79.691)"><path class="a" d="M368.827,103.969s.151.015,0-.011Z" transform="translate(-368.6 -103.689)"/><path class="a" d="M368.586,103.873l-.054,0-.206-.02v-.487l.265.046c.234.04.267.167.254.268C368.836,103.753,368.788,103.873,368.586,103.873Z" transform="translate(-368.327 -103.364)"/></g><path class="a" d="M427.611,122.642s1.609,8.626,8.662,14.139c3.479,2.417,5.348,4.162,14.411,4.162,3.371,0,3.681-1.343,12.734-.11a67.912,67.912,0,0,1,13.781,3.6,40.821,40.821,0,0,1,5.487,2.444,79.378,79.378,0,0,1,11.434-1.39c-.519,0-5.841-5.723-13.4-7.843-1.941-.574-5.73-2.293-16.992-.771-8.888,1.2-10.168,1.383-10.313,1.407a34.276,34.276,0,0,1-11.49-9.982,11.724,11.724,0,0,1-2.254-6.843c-.49.034-12.062,1.192-12.062,1.192" transform="translate(-206.05 -33.555)"/><g transform="translate(102.609 76.53)"><path class="a" d="M174.8,96.894a7.534,7.534,0,0,0-6.216,3,14.53,14.53,0,0,0-1.835,4.049c-.828,2.285-2.7,9.781,3.966,9.781s8.912-6,8.912-10.476S178.505,96.894,174.8,96.894Zm-3.437,15.883a1.314,1.314,0,0,1-.2.014c-1.12,0-2.1-1.343-1.916-4.629-.094-3.828,1.268-9.866,4.66-10.1a3.68,3.68,0,0,1,2.482,2.6C176.964,102.793,176.924,111.672,171.36,112.777Z" transform="translate(-165.64 -96.668)"/><path class="a" d="M170.447,113.678a4.743,4.743,0,0,1-4.162-1.811c-1.932-2.755-.219-7.718-.016-8.275a14.6,14.6,0,0,1,1.868-4.111,7.839,7.839,0,0,1,6.4-3.087c4.209,0,5.054,2.518,5.054,6.58C179.586,106.95,177.661,113.678,170.447,113.678Zm4.085-16.829A7.284,7.284,0,0,0,168.5,99.76a14.352,14.352,0,0,0-1.8,3.986c-.194.535-1.839,5.293-.039,7.861a4.322,4.322,0,0,0,3.791,1.618c6.856,0,8.686-6.443,8.686-10.249C179.133,98.394,177.971,96.849,174.532,96.849Zm-3.634,15.9a1.631,1.631,0,0,1-1.2-.543c-.73-.772-1.055-2.268-.94-4.325-.1-4.006,1.38-10.073,4.87-10.315l.035,0,.035.009a3.877,3.877,0,0,1,2.647,2.76c.4,1.5.561,6.427-1.46,9.68a5.616,5.616,0,0,1-3.744,2.718l-.011,0A1.5,1.5,0,0,1,170.9,112.745Zm2.721-14.728c-3.168.265-4.5,6.033-4.41,9.866-.107,1.921.184,3.337.817,4.007a1.187,1.187,0,0,0,1.03.39,5.18,5.18,0,0,0,3.442-2.512c1.921-3.091,1.785-7.922,1.408-9.323A3.47,3.47,0,0,0,173.619,98.017Z" transform="translate(-165.374 -96.395)"/></g><g transform="translate(197.078 76.456)"><path class="a" d="M378.89,96.87c-.9.45-4.616,2.581-4.616,2.581s-.292.2-.019.535.631,0,.631,0,1.347-.971,1.894-.636.435.886.3,1.932-1.744,12.391-1.744,12.391l3.2-1.458,1.414-11.284s2.865-2.9,4.314-2.9,2.083.73,2,1.974-.9,7.572-.9,7.572-.618,4.916-.618,5.252.1,2.167,2.688.649a41.872,41.872,0,0,0,5.445-4.361c.251-.316-.065-.572-.127-.631s-.17-.2-.67.3-3.2,2.98-3.923,2.445c-.351-.356-.313-1.263-.119-2.426s1.446-8.445.79-10.12-2.285-2.231-4.414-1.637a19.131,19.131,0,0,0-4.269,2.566c-.038-.1-.019-2.372-.019-2.372a.841.841,0,0,0-.734-.5,1.127,1.127,0,0,0-.51.137" transform="translate(-373.911 -96.506)"/><path class="a" d="M385.5,114.024a1.225,1.225,0,0,1-.618-.152,1.5,1.5,0,0,1-.627-1.316c0-.341.557-4.776.62-5.281.009-.064.821-6.338.9-7.558a1.632,1.632,0,0,0-.345-1.266A1.894,1.894,0,0,0,384,97.985c-1.085,0-3.274,1.955-4.1,2.778l-1.42,11.333-3.694,1.682.058-.41s1.6-11.34,1.744-12.39l.027-.213c.121-.934.144-1.268-.224-1.5-.282-.173-1.148.271-1.643.627a.728.728,0,0,1-.518.19.587.587,0,0,1-.421-.231.632.632,0,0,1-.162-.5.571.571,0,0,1,.229-.368c.166-.1,3.743-2.149,4.643-2.6a1.349,1.349,0,0,1,.611-.161,1.064,1.064,0,0,1,.943.645l.018.043v.046c-.005.7-.007,1.464,0,1.92a18.613,18.613,0,0,1,4-2.333c2.3-.64,4,.007,4.689,1.773.645,1.647-.433,8.255-.778,10.242-.076.458-.309,1.856.057,2.228.386.283,2.431-1.279,3.6-2.447.318-.315.682-.6.982-.3a.637.637,0,0,1,.152.942,41.529,41.529,0,0,1-5.5,4.407A3.773,3.773,0,0,1,385.5,114.024ZM384,97.531a2.317,2.317,0,0,1,1.762.609,2.061,2.061,0,0,1,.467,1.607c-.083,1.234-.872,7.327-.905,7.586-.247,1.97-.616,4.987-.616,5.223a1.092,1.092,0,0,0,.4.922c.379.218,1.052.056,1.947-.469a41.817,41.817,0,0,0,5.387-4.311c.055-.069.087-.14-.094-.306l.008-.015a1.155,1.155,0,0,0-.377.293c-.131.131-3.225,3.2-4.217,2.467-.4-.4-.452-1.184-.208-2.646.7-4.034,1.281-8.779.8-10-.6-1.545-2.073-2.078-4.141-1.5a18.891,18.891,0,0,0-4.184,2.521l-.244.2-.113-.3a14.556,14.556,0,0,1-.034-2.4.593.593,0,0,0-.507-.329.9.9,0,0,0-.408.113h0c-.873.435-4.445,2.484-4.6,2.572h0a.154.154,0,0,0-.026.055.225.225,0,0,0,.065.143c.049.061.087.063.1.064a.408.408,0,0,0,.2-.088c.267-.2,1.525-1.057,2.167-.664s.557,1.008.436,1.94l-.027.214c-.127.933-1.4,9.944-1.686,11.985l2.712-1.235,1.408-11.234.054-.055C379.641,100.377,382.471,97.531,384,97.531Zm8.457,10.654-.146.174a.087.087,0,0,0,.043.016Z" transform="translate(-373.638 -96.233)"/></g><g transform="translate(169.02 76.452)"><path class="a" d="M326.313,108.44c-.2-.2-.413-.08-.9.3s-3.929,3.55-6.948,3.55-2.6-4.16-2.6-5.176c0,0,3.43-.384,8.125-5.495a4.128,4.128,0,0,0,1.063-4,2.469,2.469,0,0,0-2.25-.889,7.161,7.161,0,0,0-1.689.219c-2.232.53-4.266.42-7.3,5.623a11.825,11.825,0,0,0-1.524,6.353c0,2.717,1.265,5.089,4.266,5.089s6.727-1.913,9.454-4.7C326.474,108.754,326.512,108.638,326.313,108.44Zm-7.5-9.156c2.447-1.088,3.437-.466,3.953.106.173.255.8,1.4-1.684,3.784a10,10,0,0,1-4.654,2.782c-.491,0-.472-.156-.472-.156S316.367,100.365,318.814,99.284Z" transform="translate(-312.055 -96.496)"/><path class="a" d="M316.275,113.96c-3.312,0-4.492-2.746-4.492-5.315a12.136,12.136,0,0,1,1.564-6.481c2.762-4.73,4.788-5.154,6.747-5.564.23-.048.46-.1.693-.152a7.372,7.372,0,0,1,1.741-.225,2.675,2.675,0,0,1,2.451,1.009,4.339,4.339,0,0,1-1.1,4.27c-4.116,4.482-7.256,5.368-8.063,5.529,0,.044,0,.09,0,.138-.031.984-.1,3.032.879,4.037a1.977,1.977,0,0,0,1.5.581c2.6,0,5.554-2.463,6.526-3.272.13-.108.227-.189.285-.232.41-.314.835-.641,1.2-.276s.11.7-.3,1.177C323.056,112.09,319.281,113.96,316.275,113.96Zm6.252-17.284a6.927,6.927,0,0,0-1.635.213c-.238.057-.472.106-.706.155-1.948.408-3.788.792-6.457,5.362a11.687,11.687,0,0,0-1.493,6.239c0,1.141.292,4.862,4.039,4.862,2.89,0,6.538-1.817,9.292-4.629a2.371,2.371,0,0,0,.36-.5h0s-.013-.017-.047-.05h0c-.049-.05-.122-.054-.606.317-.056.043-.147.118-.269.22-1,.835-4.057,3.377-6.817,3.377a2.44,2.44,0,0,1-1.827-.719c-1.108-1.143-1.039-3.32-1.006-4.366,0-.126.008-.233.008-.318v-.2l.2-.023c.034,0,3.415-.45,7.983-5.424a3.9,3.9,0,0,0,1.03-3.744C324.389,97.09,323.74,96.677,322.527,96.677Zm-6.36,9.229a.808.808,0,0,1-.63-.176.294.294,0,0,1-.077-.23c.016-.217.449-5.573,2.99-6.7,1.954-.868,3.332-.816,4.213.161.32.467.753,1.75-1.7,4.1a9.774,9.774,0,0,1-4.774,2.842Zm-.255-.376v.015S315.911,105.534,315.911,105.529Zm.009-.094a1.13,1.13,0,0,0,.236.02,9.4,9.4,0,0,0,4.5-2.72c2.259-2.168,1.836-3.221,1.652-3.492-.448-.494-1.338-1.064-3.673-.026h0C316.522,100.15,315.994,104.674,315.92,105.435Z" transform="translate(-311.782 -96.223)"/></g><g transform="translate(184.661 76.071)"><path class="a" d="M351.784,99.2c-.025-.139-.044-.431-.044-.431l.044-1.442a1.071,1.071,0,0,0-.815-1.11c-.885-.236-2.083.73-2.439,1.013s-1.7,1.357-1.7,1.357-.3.634.416.339c0,0,.89-.714,1.268-.476s.335.69.191,1.536-1.219,8.838-1.219,8.838l-.532,4.342,2.995-1.183,1.46-10.7a3.252,3.252,0,0,1,3.416-1.953c1.32.13,1.8.183,1.951.205l.675-3.661s-.052,0-.146,0c-.556,0-2.65.228-5.518,3.321" transform="translate(-346.538 -95.656)"/><path class="a" d="M346.406,113.249l.578-4.72c.045-.329,1.087-8,1.221-8.847s.15-1.159-.088-1.308c-.127-.079-.606.14-1.006.46l-.055.032c-.119.049-.479.2-.687-.02s-.066-.529-.021-.624l.064-.08s1.351-1.086,1.706-1.36c.419-.332,1.651-1.315,2.636-1.053a1.289,1.289,0,0,1,.983,1.349l-.04,1.329c2.741-2.8,4.761-3.024,5.332-3.024.1,0,.155,0,.155,0l.261.01-.761,4.132-.215-.03c-.144-.02-.6-.072-1.942-.2a3,3,0,0,0-3.173,1.785l-1.474,10.8Zm1.642-15.342a.572.572,0,0,1,.31.083c.536.337.424,1,.294,1.766-.132.836-1.208,8.751-1.218,8.831l-.485,3.96,2.517-.994,1.455-10.613a3.49,3.49,0,0,1,3.651-2.1c.827.082,1.42.142,1.744.18l.586-3.181c-.689.039-2.613.429-5.225,3.244l-.309.334-.08-.448c-.026-.147-.047-.456-.047-.456l.044-1.463a.835.835,0,0,0-.648-.884c-.5-.137-1.254.188-2.223.959-.33.255-1.431,1.139-1.671,1.332,0,.013-.009.027-.012.04a.9.9,0,0,0,.124-.04A2.356,2.356,0,0,1,348.048,97.907Z" transform="translate(-346.264 -95.383)"/></g><g transform="translate(118.779 76.033)"><path class="a" d="M204.81,96.907l-3.125,2.073s-.621.89.567.611a2.359,2.359,0,0,0,.491-.236s1.654-1.022,1.441.554-1.3,9.569-1.346,10.853.675,2.937,3.3,2.4a13.238,13.238,0,0,0,5.8-2.523c-.027.257-.337,2.561,1.381,2.561s3.9-1.892,5.324-3.27,1.282-1.5,1.282-1.5.016-.907-.907-.139-1.988,2.469-3.351,2.469-.337-4.127-.178-5.23,1.122-8.13,1.1-8.523.043-1.364-1.3-.789a43.168,43.168,0,0,0-4.3,2.509s-.44.175-.184.53.707.1.91-.019,1.263-.615,1.619-.4.429.078.237,1.343-1.084,7.87-1.168,8.918c-.076.2-3.232,2.881-5.658,2.881,0,0-1.266.214-1.009-2.547.205-2.191,1.544-11.364,1.544-11.364s.313-2.031-.3-2.249a.639.639,0,0,0-.165-.024c-.677,0-2.013,1.107-2.013,1.107" transform="translate(-201.296 -95.573)"/><path class="a" d="M204.916,113.221a2.581,2.581,0,0,1-1.715-.557,2.7,2.7,0,0,1-.864-2.182c.047-1.312,1.132-9.292,1.349-10.878.042-.307.006-.514-.1-.583-.195-.127-.711.076-1,.253a2.543,2.543,0,0,1-.529.255c-.206.05-.745.177-.961-.141-.206-.3.07-.729.128-.812l.06-.059,3.115-2.067a5.1,5.1,0,0,1,2.148-1.151.845.845,0,0,1,.214.029c.757.27.552,1.986.472,2.506-.014.09-1.339,9.19-1.542,11.35-.133,1.435.169,1.96.361,2.145a.506.506,0,0,0,.389.157c2.227,0,5.113-2.335,5.471-2.739.111-1.23.972-7.667,1.164-8.872a4.071,4.071,0,0,0,.088-.985.635.635,0,0,0-.1-.059c-.037-.02-.078-.042-.123-.07-.19-.114-1.055.2-1.384.4-.211.121-.828.473-1.208-.04a.54.54,0,0,1-.106-.482.664.664,0,0,1,.363-.383,42.1,42.1,0,0,1,4.315-2.518,1.319,1.319,0,0,1,1.229-.078,1.139,1.139,0,0,1,.386.987l0,.078c.022.457-1.094,8.484-1.105,8.565-.025.176-.072.424-.127.72-.214,1.149-.661,3.539-.163,4.139a.29.29,0,0,0,.243.113c.878,0,1.664-.838,2.357-1.578a9.656,9.656,0,0,1,.85-.84c.4-.329.709-.432.958-.313a.632.632,0,0,1,.312.514l0,0,.008.115c0,.108.014.331-1.354,1.66-2.315,2.243-4.108,3.334-5.482,3.334a1.464,1.464,0,0,1-1.144-.473,2.574,2.574,0,0,1-.5-1.807,14.587,14.587,0,0,1-5.493,2.238A5.027,5.027,0,0,1,204.916,113.221Zm-1.5-14.691a.751.751,0,0,1,.414.11c.268.174.37.519.3,1.025-.132.97-1.3,9.515-1.344,10.831a2.324,2.324,0,0,0,.7,1.82,2.679,2.679,0,0,0,2.326.352,13,13,0,0,0,5.693-2.469l.442-.4-.063.6a2.627,2.627,0,0,0,.35,1.989,1.017,1.017,0,0,0,.806.322c1.233,0,2.971-1.079,5.166-3.206a7.118,7.118,0,0,0,1.212-1.34v0a.326.326,0,0,0-.062-.215c-.029-.014-.175.006-.472.254a9.346,9.346,0,0,0-.809.8c-.756.807-1.614,1.721-2.688,1.721a.748.748,0,0,1-.592-.277c-.585-.7-.288-2.615.067-4.512.054-.289.1-.531.123-.7.364-2.617,1.113-8.135,1.1-8.48l0-.085c-.006-.205-.016-.516-.177-.619-.141-.09-.428-.049-.807.113a43.238,43.238,0,0,0-4.26,2.49l-.041.021a.246.246,0,0,0-.12.1.139.139,0,0,0,.036.087c.1.134.271.112.609-.081.012-.008,1.313-.725,1.853-.4.039.024.073.042.1.059.42.229.4.438.24,1.511-.2,1.225-1.083,7.861-1.167,8.9l-.015.064c-.124.321-3.4,3.026-5.87,3.026a.919.919,0,0,1-.722-.266,3.072,3.072,0,0,1-.513-2.528c.2-2.172,1.531-11.283,1.545-11.375.135-.875.107-1.912-.148-2a.433.433,0,0,0-.088-.01,4.723,4.723,0,0,0-1.868,1.055l-.02.014-3.086,2.047a.568.568,0,0,0-.1.269s.029.007.1.007a1.559,1.559,0,0,0,.351-.05,2.188,2.188,0,0,0,.411-.2A2.4,2.4,0,0,1,203.42,98.53Z" transform="translate(-201.023 -95.3)"/></g><path class="a" d="M425.829,96.516a5.861,5.861,0,1,0,5.855-5.858,5.85,5.85,0,0,0-5.855,5.858" transform="translate(-205.077 -16.731)"/><g transform="translate(138.031 65.3)"><path class="a" d="M248.281,75.324l-1.1,8.622-2.706.021s-.51.158-.51.589.494.533.494.533l2.526.042-1.875,12.9s-.353,2.229,1.1,2.662,3.235-1.263,3.828-1.811,3.1-3,3.1-3a.429.429,0,0,0-.062-.6c-.313-.292-.707.061-.707.061l-2.763,2.41s-1.506.434-1.328-.952,1.508-11.7,1.508-11.7l2.6-.022s.508-.059.491-.49-.216-.652-.593-.631-2.3,0-2.3,0L251.463,72.8Z" transform="translate(-243.738 -72.272)"/><path class="a" d="M246.436,100.357a1.963,1.963,0,0,1-.562-.08c-1.629-.484-1.278-2.816-1.263-2.914l1.838-12.644-2.268-.038a.812.812,0,0,1-.717-.759.9.9,0,0,1,.67-.806l.065-.01,2.508-.02,1.088-8.517,3.692-2.931-1.521,11.47c.536,0,1.752.013,2.034,0a.764.764,0,0,1,.573.18.915.915,0,0,1,.259.67.73.73,0,0,1-.692.723l-2.424.022c-.184,1.43-1.317,10.237-1.483,11.5a.681.681,0,0,0,.144.627,1.093,1.093,0,0,0,.85.089l2.722-2.375a.748.748,0,0,1,1.011-.055.655.655,0,0,1,.082.909c-.042.042-2.534,2.468-3.12,3.016l-.059.055C249.275,99.015,247.828,100.357,246.436,100.357Zm-2.194-16.8c-.082.033-.324.149-.324.362,0,.246.307.309.31.31l2.743.043L245.06,97.431c0,.023-.3,2.041.944,2.411,1.29.384,2.934-1.134,3.551-1.706l.059-.054c.582-.545,3.071-2.968,3.1-2.992.033-.046.067-.151-.06-.271-.16-.148-.4.064-.4.065L249.4,97.343a1.561,1.561,0,0,1-1.316-.169,1.091,1.091,0,0,1-.3-1.03c.181-1.379,1.508-11.7,1.508-11.7l.025-.2,2.8-.023c.024,0,.274-.048.266-.254a.531.531,0,0,0-.111-.352.327.327,0,0,0-.244-.061c-.378.02-2.24,0-2.319,0l-.256,0,1.442-10.866-2.669,2.119-1.114,8.727Z" transform="translate(-243.465 -71.638)"/></g><g transform="translate(148.892 60.047)"><path class="a" d="M273.486,60.747a17.632,17.632,0,0,0-5.232,3.687s-.472,1.048.508.553c1-.494,2.1-1.324,2.906-1.183.655.1.1,2.7-.081,3.71l-3.567,26.3,3.06-1.2,1.595-11.64s2.882-2.7,4.811-2.527,1.665,2.311,1.462,4.045S278,90.636,278,90.636s-.537,2.977.528,3.295,3.81-1.618,4.973-2.624a20.364,20.364,0,0,0,2.313-2.347c.014-.082-.143-.852-.791-.459-.618.459-2.218,2.688-3.459,2.506-.629-.117-.661-.551-.572-1.931.105-1.378,1.308-8.605.934-10.2s-2.388-2.229-4.069-1.771a14.906,14.906,0,0,0-4.946,2.659c.014-.356,1.473-11.364,1.473-11.364l.774-6.372s.189-1.47-.89-1.47a2.058,2.058,0,0,0-.785.188" transform="translate(-267.743 -60.332)"/><path class="a" d="M278.457,93.917a1.139,1.139,0,0,1-.323-.043c-1.225-.365-.746-3.228-.687-3.553,0,0,.74-6.4.942-8.135l.006-.053c.141-1.2.3-2.569-.265-3.266a1.374,1.374,0,0,0-1-.473c-1.668-.153-4.163,2.04-4.576,2.414l-1.6,11.69-3.544,1.391.052-.383,3.568-26.3.062-.338c.151-.811.505-2.708.229-3.1a3.535,3.535,0,0,0-2,.712c-.267.151-.533.3-.793.431-.138.069-.567.284-.817.044s-.064-.748,0-.894l.041-.062a17.774,17.774,0,0,1,5.309-3.74h0c.756-.315,1.315-.266,1.664.13a2,2,0,0,1,.324,1.39l-.774,6.37c-.35,2.636-1.183,8.949-1.413,10.822a15.11,15.11,0,0,1,4.6-2.363,4.2,4.2,0,0,1,3.142.357,2.5,2.5,0,0,1,1.206,1.581c.283,1.2-.281,5.354-.655,8.1-.137,1.007-.245,1.8-.273,2.17-.094,1.452-.01,1.617.387,1.691.8.113,1.867-1.026,2.58-1.779a6.635,6.635,0,0,1,.7-.686.7.7,0,0,1,.8-.056.91.91,0,0,1,.35.733,16.409,16.409,0,0,1-2.388,2.482C282.452,91.955,279.855,93.917,278.457,93.917Zm-1.489-15.984c.069,0,.137,0,.2.009a1.828,1.828,0,0,1,1.31.639c.686.846.515,2.312.364,3.6l-.006.053c-.2,1.739-.944,8.149-.944,8.149-.165.92-.289,2.855.368,3.051.845.254,3.355-1.363,4.76-2.578a23.027,23.027,0,0,0,2.227-2.235.438.438,0,0,0-.158-.268c-.078-.043-.2.011-.28.063a7.338,7.338,0,0,0-.626.622c-.825.872-1.964,2.065-2.984,1.915-.894-.167-.846-.922-.765-2.17.029-.383.138-1.184.276-2.2.347-2.548.926-6.813.663-7.934a2.055,2.055,0,0,0-1-1.3,3.731,3.731,0,0,0-2.792-.309,14.7,14.7,0,0,0-4.86,2.615l-.391.326.019-.508c.014-.356,1.326-10.257,1.475-11.385l.774-6.37a1.531,1.531,0,0,0-.215-1.035c-.215-.243-.6-.24-1.148-.01a17.287,17.287,0,0,0-5.127,3.6,1.023,1.023,0,0,0-.08.332.941.941,0,0,0,.293-.107c.254-.126.513-.273.772-.42a3.933,3.933,0,0,1,2.275-.784.477.477,0,0,1,.316.2c.357.5.12,1.978-.153,3.443l-.06.326-3.514,25.9,2.576-1.012,1.588-11.587.059-.055C272.3,80.421,274.977,77.934,276.968,77.934Z" transform="translate(-267.409 -60.058)"/></g><g transform="translate(74.491 60.038)"><path class="a" d="M113.147,65.56c-1.495,3.184-.556,6.29,2.474,9.267s8.942,4.652,10.807,9.7-1.023,7.787-7.6,7.787-10.229-3.159-11.462-4.629c-3.184-3.9-.553-6.582.078-7.526s-.259-1.131-.6-.763a10.429,10.429,0,0,0-2.952,7c0,2.288,1.5,7.944,11.969,7.944s13.915-5.182,13.915-9.759-3.974-8.127-9.832-11.627-5.4-6.363-5.4-6.363a2.942,2.942,0,0,1,.847-2.03c3.184-2.994,8.1-2.1,9.2-1.708,3.575,1.133,3.37,3.265,3.554,3.842s.577.156.577.156l.421-3.025s.953-3.255-4.684-3.285c-6.942,0-9.816,1.844-11.311,5.022" transform="translate(-103.66 -60.311)"/><path class="a" d="M115.583,94.292c-11.608,0-12.2-6.806-12.2-8.17a10.72,10.72,0,0,1,3.014-7.155.777.777,0,0,1,1-.112c.112.088.438.433-.045,1.158-.063.093-.143.2-.236.327-.851,1.15-2.623,3.542.144,6.929.636.758,4.175,4.546,11.287,4.546,3.623,0,6.13-.849,7.248-2.456.868-1.247.916-2.938.143-5.026-1.2-3.242-4.072-5.049-6.853-6.8a23.322,23.322,0,0,1-3.9-2.822c-3.175-3.12-4.023-6.325-2.521-9.526h0c1.2-2.548,3.5-5.152,11.516-5.152,2.237.012,3.747.523,4.49,1.519a2.477,2.477,0,0,1,.412,2.057l-.424,3.063-.049.053a.645.645,0,0,1-.557.211.586.586,0,0,1-.4-.454,2.724,2.724,0,0,1-.073-.357c-.127-.78-.39-2.4-3.333-3.336-1.045-.372-5.9-1.238-8.979,1.657a2.736,2.736,0,0,0-.776,1.865c-.007.062-.336,2.81,5.288,6.168,4.917,2.938,9.943,6.639,9.943,11.822C129.724,89.134,126.01,94.292,115.583,94.292Zm-8.6-15.119a.355.355,0,0,0-.255.1,10.253,10.253,0,0,0-2.891,6.844c0,1.289.566,7.717,11.742,7.717,6.617,0,13.688-2.5,13.688-9.533,0-3.942-2.907-7.361-9.722-11.433-5.927-3.539-5.526-6.471-5.506-6.594a3.1,3.1,0,0,1,.925-2.167c3.268-3.074,8.267-2.161,9.425-1.748,3.2,1.014,3.495,2.824,3.636,3.693a2.359,2.359,0,0,0,.058.294c.039.124.076.15.077.15a.238.238,0,0,0,.072-.04l.409-2.942a2.034,2.034,0,0,0-.338-1.7c-.645-.86-2.071-1.32-4.122-1.331-6.252,0-9.47,1.417-11.1,4.892-1.412,3.007-.6,6.038,2.428,9.009a23.043,23.043,0,0,0,3.824,2.762c2.712,1.7,5.786,3.636,7.037,7.022.827,2.236.762,4.067-.2,5.443-1.207,1.734-3.842,2.65-7.621,2.65-7.13,0-10.709-3.6-11.636-4.71-2.992-3.662-1.007-6.343-.16-7.488.088-.118.165-.222.223-.309.2-.3.215-.492.142-.55A.217.217,0,0,0,106.987,79.174Z" transform="translate(-103.387 -60.038)"/></g><g transform="translate(54.509 118.989)"><path class="a" d="M243.038,190.056l.239.24a3.233,3.233,0,0,1,.688,1.281H255.55c.3-.518.613-1.051.92-1.578h-13.5C242.991,190.018,243.016,190.036,243.038,190.056Z" transform="translate(-159.672 -189.999)"/><path class="a" d="M138.456,190.16l0,0c.07-.058.141-.108.212-.159H60.159l-.823,1.578h77.725A16.773,16.773,0,0,1,138.456,190.16Z" transform="translate(-59.336 -189.999)"/></g></g></svg>